<svg width="602" height="262" viewBox="0 0 602 262" fill="none" xmlns="http://www.w3.org/2000/svg">
<path fill-rule="evenodd" clip-rule="evenodd" d="M640.076 195.101L640.066 195.135L640.037 195.105L640.026 195.146L624.465 179.546L610.557 230.497L632.008 224.966L640.106 195.131L640.076 195.101ZM645.855 173.953L645.815 173.913L645.813 173.922L645.853 173.963L645.855 173.953Z" fill="#990033"/>
<g style="mix-blend-mode:multiply">
<path fill-rule="evenodd" clip-rule="evenodd" d="M508.736 152.086L530.453 146.861L516.561 196.681L501.084 180.997L508.736 152.086ZM495.404 202.456L495.51 202.563L495.366 202.6L495.404 202.456Z" fill="#0095D3"/>
</g>
<g style="mix-blend-mode:multiply">
<path fill-rule="evenodd" clip-rule="evenodd" d="M156.888 268.792L157.718 246.471L201.938 273.294L182.66 283.963L156.888 268.792ZM201.789 295.225L201.921 295.152L201.918 295.301L201.789 295.225Z" fill="#0095D3"/>
</g>
<g style="mix-blend-mode:multiply">
<path d="M298.786 206.227L320.236 200.696L326.19 207.786L320.447 229.144L298.786 206.227Z" fill="#0095D3"/>
<path d="M298.786 206.227L320.236 200.696L326.19 207.786L320.447 229.144L298.786 206.227Z" fill="#0095D3"/>
</g>
<path d="M450.61 245.658L445.538 223.805L476.971 235.284L460.945 249.776L450.61 245.658Z" fill="#990033"/>
<path d="M450.61 245.658L445.538 223.805L476.971 235.284L460.945 249.776L450.61 245.658Z" fill="#990033"/>
<g style="mix-blend-mode:multiply">
<path d="M478.699 35L494.214 50.8108L491.051 59.5121L469.683 65.217L478.699 35Z" fill="#0095D3"/>
<path d="M478.699 35L494.214 50.8108L491.051 59.5121L469.683 65.217L478.699 35Z" fill="#0095D3"/>
</g>
<path d="M606.629 87.6083L612.282 65.8991L634.793 90.6589L613.87 96.0544L606.629 87.6083Z" fill="#990033"/>
<path d="M606.629 87.6083L612.282 65.8991L634.793 90.6589L613.87 96.0544L606.629 87.6083Z" fill="#990033"/>
</svg>
