<svg width="1496" height="370" viewBox="0 0 1496 370" fill="none" xmlns="http://www.w3.org/2000/svg">
<path fill-rule="evenodd" clip-rule="evenodd" d="M612.25 369.159L612.23 369.189L612.212 369.152L612.189 369.186L602.334 349.479L573.084 393.455L595.185 394.962L612.269 369.198L612.25 369.159ZM624.396 350.909L624.371 350.858L624.366 350.865L624.391 350.917L624.396 350.909Z" fill="#990033"/>
<path fill-rule="evenodd" clip-rule="evenodd" d="M109.166 34.8752L109.146 34.9048L109.128 34.8675L109.105 34.9021L99.2496 15.1946L70.0002 59.1713L92.101 60.6782L109.185 34.9137L109.166 34.8752ZM121.312 16.625L121.287 16.5735L121.282 16.5813L121.307 16.6329L121.312 16.625Z" fill="#990033"/>
<g style="mix-blend-mode:multiply">
<path fill-rule="evenodd" clip-rule="evenodd" d="M43.7609 209.564L63.6492 199.931L63.6132 200.414L62.3593 216.31L61.9048 221.969L51.4631 227.075L42.1745 231.577L42.4543 227.352L43.7609 209.564Z" fill="#000023"/>
</g>
<g style="mix-blend-mode:multiply">
<path fill-rule="evenodd" clip-rule="evenodd" d="M275.799 366.079L295.688 356.447L295.652 356.917L294.397 372.832L293.943 378.484L283.488 383.597L274.213 388.093L274.492 383.873L275.799 366.079Z" fill="#000023"/>
</g>
<g style="mix-blend-mode:multiply">
<path fill-rule="evenodd" clip-rule="evenodd" d="M1489.91 100.192L1512.17 102.074L1483.29 144.981L1473.54 125.221L1489.91 100.192ZM1461.39 143.798L1461.46 143.933L1461.31 143.923L1461.39 143.798Z" fill="#0095D3"/>
</g>
<g style="mix-blend-mode:multiply">
<path fill-rule="evenodd" clip-rule="evenodd" d="M130.447 286.894L138.267 265.971L171.787 305.358L150.128 309.412L130.447 286.894ZM164.737 326.126L164.885 326.098L164.835 326.238L164.737 326.126Z" fill="#0095D3"/>
</g>
<path d="M2.69087 335.453L14.8941 316.629L28.46 347.22L6.90266 345.75L2.69087 335.453Z" fill="#990033"/>
<path d="M2.69087 335.453L14.8941 316.629L28.46 347.22L6.90266 345.75L2.69087 335.453Z" fill="#990033"/>
<g style="mix-blend-mode:multiply">
<path d="M284.83 272.213L306.931 273.72L310.348 282.325L298.169 300.786L284.83 272.213Z" fill="#0095D3"/>
<path d="M284.83 272.213L306.931 273.72L310.348 282.325L298.169 300.786L284.83 272.213Z" fill="#0095D3"/>
</g>
<path d="M416.505 357.461L418.574 335.123L444.791 355.919L425.016 364.625L416.505 357.461Z" fill="#990033"/>
<path d="M416.505 357.461L418.574 335.123L444.791 355.919L425.016 364.625L416.505 357.461Z" fill="#990033"/>
</svg>
