<svg width="36" height="36" viewBox="0 0 36 36" fill="none" xmlns="http://www.w3.org/2000/svg">
<path d="M22.1123 18L34.654 5.48747C35.2032 4.93825 35.5118 4.19335 35.5118 3.41664C35.5118 2.63992 35.2032 1.89502 34.654 1.3458C34.1048 0.796585 33.3599 0.488037 32.5832 0.488037C31.8064 0.488037 31.0615 0.796585 30.5123 1.3458L17.9998 13.8875L5.48732 1.3458C4.9381 0.796585 4.1932 0.488037 3.41649 0.488037C2.63978 0.488037 1.89487 0.796585 1.34566 1.3458C0.796436 1.89502 0.487888 2.63992 0.487888 3.41664C0.487888 4.19335 0.796436 4.93825 1.34566 5.48747L13.8873 18L1.34566 30.5125C1.07228 30.7836 0.855298 31.1062 0.707223 31.4616C0.559147 31.817 0.48291 32.1983 0.48291 32.5833C0.48291 32.9683 0.559147 33.3496 0.707223 33.705C0.855298 34.0604 1.07228 34.383 1.34566 34.6541C1.6168 34.9275 1.93938 35.1445 2.29481 35.2926C2.65023 35.4406 3.03145 35.5169 3.41649 35.5169C3.80152 35.5169 4.18275 35.4406 4.53817 35.2926C4.89359 35.1445 5.21618 34.9275 5.48732 34.6541L17.9998 22.1125L30.5123 34.6541C30.7835 34.9275 31.106 35.1445 31.4615 35.2926C31.8169 35.4406 32.1981 35.5169 32.5832 35.5169C32.9682 35.5169 33.3494 35.4406 33.7048 35.2926C34.0603 35.1445 34.3828 34.9275 34.654 34.6541C34.9274 34.383 35.1443 34.0604 35.2924 33.705C35.4405 33.3496 35.5167 32.9683 35.5167 32.5833C35.5167 32.1983 35.4405 31.817 35.2924 31.4616C35.1443 31.1062 34.9274 30.7836 34.654 30.5125L22.1123 18Z" fill="white"/>
</svg>
