<svg width="273" height="192" viewBox="0 0 273 192" fill="none" xmlns="http://www.w3.org/2000/svg">
<path d="M160.025 62.6437H151.351V77.5831H145.569V39.5945H160.023C167.465 39.5945 172.227 44.5034 172.227 51.1191C172.227 57.7348 167.465 62.6437 160.025 62.6437ZM159.702 44.7697H151.35V57.4147H159.702C163.717 57.4147 166.447 55.1203 166.447 51.1191C166.447 47.1166 163.717 44.7697 159.702 44.7697Z" fill="#000023"/>
<path d="M184.897 77.5831C179.828 77.5831 177.559 74.1146 177.559 70.1147V39.5945H182.944V69.7947C182.944 71.8766 183.681 72.9418 185.846 72.9418H188.222V77.5831H184.897Z" fill="#000023"/>
<path d="M212.907 75.0137C211.084 76.8491 208.328 78.2494 204.521 78.2494C200.718 78.2494 198.014 76.8464 196.195 75.0137C193.549 72.3191 192.887 68.8645 192.887 64.2271C192.887 59.6427 193.549 56.1895 196.195 53.4935C198.014 51.6595 200.718 50.2578 204.521 50.2578C208.328 50.2578 211.084 51.6622 212.907 53.4935C215.552 56.1895 216.214 59.6427 216.214 64.2271C216.217 68.8659 215.552 72.3177 212.907 75.0137ZM208.658 56.7319C207.61 55.7068 206.177 55.1658 204.521 55.1658C202.869 55.1658 201.49 55.7042 200.44 56.7319C198.732 58.4041 198.512 61.2619 198.512 64.2271C198.512 67.1923 198.732 70.0527 200.44 71.7236C201.488 72.7461 202.869 73.3415 204.521 73.3415C206.177 73.3415 207.609 72.7487 208.658 71.7236C210.37 70.0501 210.589 67.1923 210.589 64.2271C210.589 61.2619 210.37 58.4028 208.658 56.7319Z" fill="#000023"/>
<path d="M238.081 77.583V61.125C238.081 56.9159 235.672 55.1047 232.623 55.1047C229.574 55.1047 227.003 56.9683 227.003 61.125V77.5817H221.546V50.5774H226.895V53.2935C228.77 51.2688 231.39 50.2578 234.12 50.2578C236.903 50.2578 239.206 51.1628 240.81 52.7081C242.897 54.7315 243.539 57.2878 243.539 60.3235V77.5817L238.081 77.583Z" fill="#000023"/>
<path d="M254.349 65.8463C254.349 70.5368 256.845 73.5033 261.346 73.5033C264.437 73.5033 266.067 72.6426 268.021 70.6985L271.546 73.9886C268.725 76.792 266.068 78.2494 261.24 78.2494C254.349 78.2494 248.871 74.6358 248.871 64.2271C248.871 55.3806 253.482 50.2578 260.534 50.2578C267.912 50.2578 272.197 55.6511 272.197 63.4195V65.8463H254.349V65.8463ZM265.957 58.2941C265.09 56.2452 263.139 54.8409 260.534 54.8409C257.932 54.8409 255.923 56.2452 255.056 58.2941C254.514 59.5353 254.405 60.3442 254.35 62.0165H266.719C266.662 60.3442 266.502 59.534 265.957 58.2941Z" fill="#000023"/>
<path d="M196.821 169.512C196.821 169.631 196.773 169.738 196.678 169.833C196.607 169.904 196.512 169.94 196.393 169.94H184.242C184.123 169.94 184.064 169.999 184.064 170.118V176.782C184.064 176.9 184.123 176.96 184.242 176.96H192.402C192.521 176.96 192.616 177.007 192.687 177.102C192.782 177.174 192.83 177.269 192.83 177.387V180.096C192.83 180.214 192.782 180.321 192.687 180.416C192.616 180.488 192.521 180.523 192.402 180.523H184.242C184.123 180.523 184.064 180.583 184.064 180.701V187.579C184.064 187.698 184.123 187.757 184.242 187.757H196.393C196.512 187.757 196.607 187.805 196.678 187.9C196.773 187.971 196.821 188.066 196.821 188.185V190.893C196.821 191.012 196.773 191.119 196.678 191.214C196.607 191.285 196.512 191.32 196.393 191.32H180.358C180.239 191.32 180.132 191.285 180.037 191.214C179.966 191.119 179.93 191.012 179.93 190.893V166.804C179.93 166.685 179.966 166.59 180.037 166.519C180.132 166.424 180.239 166.376 180.358 166.376H196.393C196.512 166.376 196.607 166.424 196.678 166.519C196.773 166.59 196.821 166.685 196.821 166.804V169.512Z" fill="#000023"/>
<path d="M201.446 191.32C201.327 191.32 201.22 191.285 201.125 191.214C201.054 191.119 201.018 191.012 201.018 190.893V166.804C201.018 166.685 201.054 166.59 201.125 166.519C201.22 166.424 201.327 166.376 201.446 166.376H204.724C204.843 166.376 204.938 166.424 205.009 166.519C205.104 166.59 205.152 166.685 205.152 166.804V190.893C205.152 191.012 205.104 191.119 205.009 191.214C204.938 191.285 204.843 191.32 204.724 191.32H201.446Z" fill="#000023"/>
<path d="M224.277 178.314C224.135 178.385 224.135 178.456 224.277 178.528C226.701 179.668 227.912 181.628 227.912 184.407C227.912 186.664 227.152 188.387 225.631 189.574C224.135 190.738 222.175 191.32 219.752 191.32H210.772C210.653 191.32 210.546 191.285 210.451 191.214C210.38 191.119 210.344 191.012 210.344 190.893V166.804C210.344 166.685 210.38 166.59 210.451 166.519C210.546 166.424 210.653 166.376 210.772 166.376H219.467C222.056 166.376 224.052 166.935 225.453 168.051C226.855 169.168 227.556 170.855 227.556 173.111C227.556 175.606 226.463 177.34 224.277 178.314ZM214.656 169.94C214.537 169.94 214.478 169.999 214.478 170.118V176.71C214.478 176.829 214.537 176.889 214.656 176.889H219.467C220.726 176.889 221.712 176.592 222.424 175.998C223.161 175.38 223.529 174.537 223.529 173.468C223.529 172.375 223.161 171.52 222.424 170.902C221.712 170.261 220.726 169.94 219.467 169.94H214.656ZM219.752 187.721C220.987 187.721 221.961 187.389 222.674 186.724C223.41 186.058 223.779 185.156 223.779 184.015C223.779 182.851 223.41 181.949 222.674 181.307C221.937 180.642 220.94 180.309 219.681 180.309H214.656C214.537 180.309 214.478 180.369 214.478 180.488V187.543C214.478 187.662 214.537 187.721 214.656 187.721H219.752Z" fill="#000023"/>
<path d="M246.794 191.32C246.556 191.32 246.402 191.202 246.33 190.964L245.154 187.151C245.107 187.056 245.047 187.009 244.976 187.009H235.569C235.497 187.009 235.438 187.056 235.391 187.151L234.215 190.964C234.143 191.202 233.989 191.32 233.751 191.32H230.188C230.045 191.32 229.939 191.285 229.867 191.214C229.796 191.119 229.784 190.988 229.832 190.822L237.564 166.733C237.636 166.495 237.79 166.376 238.027 166.376H242.482C242.719 166.376 242.874 166.495 242.945 166.733L250.713 190.822C250.737 190.869 250.749 190.929 250.749 191C250.749 191.214 250.618 191.32 250.357 191.32H246.794ZM236.495 183.552C236.471 183.695 236.519 183.766 236.638 183.766H243.872C244.014 183.766 244.062 183.695 244.014 183.552L240.344 171.615C240.32 171.52 240.284 171.472 240.237 171.472C240.189 171.472 240.154 171.52 240.13 171.615L236.495 183.552Z" fill="#000023"/>
<path d="M268.439 191.32C268.202 191.32 268.035 191.214 267.94 191L263.237 180.737C263.189 180.642 263.118 180.595 263.023 180.595H258.747C258.628 180.595 258.568 180.654 258.568 180.773V190.893C258.568 191.012 258.521 191.119 258.426 191.214C258.355 191.285 258.26 191.32 258.141 191.32H254.862C254.744 191.32 254.637 191.285 254.542 191.214C254.47 191.119 254.435 191.012 254.435 190.893V166.804C254.435 166.685 254.47 166.59 254.542 166.519C254.637 166.424 254.744 166.376 254.862 166.376H264.662C266.111 166.376 267.394 166.685 268.51 167.303C269.627 167.897 270.494 168.752 271.112 169.869C271.729 170.961 272.038 172.22 272.038 173.646C272.038 175.285 271.611 176.687 270.755 177.851C269.924 178.991 268.76 179.787 267.263 180.238C267.216 180.238 267.18 180.262 267.156 180.309C267.133 180.357 267.133 180.405 267.156 180.452L272.181 190.822C272.228 190.917 272.252 190.988 272.252 191.035C272.252 191.225 272.121 191.32 271.86 191.32H268.439ZM258.747 169.94C258.628 169.94 258.568 169.999 258.568 170.118V177.209C258.568 177.328 258.628 177.387 258.747 177.387H264.092C265.232 177.387 266.147 177.055 266.836 176.39C267.548 175.701 267.905 174.798 267.905 173.681C267.905 172.565 267.548 171.662 266.836 170.973C266.147 170.284 265.232 169.94 264.092 169.94H258.747Z" fill="#000023"/>
<path d="M157.304 148.404C157.222 148.486 157.202 148.567 157.243 148.649C157.283 148.73 157.365 148.771 157.487 148.771H174.051C174.255 148.771 174.418 148.852 174.54 149.015C174.703 149.137 174.784 149.3 174.784 149.503V155.427C174.784 155.63 174.703 155.814 174.54 155.976C174.418 156.099 174.255 156.16 174.051 156.16H146.547C146.343 156.16 146.159 156.099 145.996 155.976C145.874 155.814 145.813 155.63 145.813 155.427V149.809C145.813 149.442 145.935 149.137 146.18 148.893C148.176 146.939 150.214 144.822 152.292 142.542C154.37 140.221 155.674 138.776 156.204 138.206C157.345 136.863 158.506 135.58 159.688 134.359C163.396 130.247 165.25 127.194 165.25 125.199C165.25 123.774 164.74 122.614 163.722 121.718C162.703 120.782 161.379 120.314 159.749 120.314C158.119 120.314 156.794 120.782 155.776 121.718C154.757 122.614 154.248 123.815 154.248 125.321V126.848C154.248 127.051 154.166 127.235 154.003 127.397C153.881 127.52 153.718 127.581 153.514 127.581H146.302C146.098 127.581 145.915 127.52 145.752 127.397C145.63 127.235 145.569 127.051 145.569 126.848V123.978C145.691 121.779 146.384 119.846 147.647 118.176C148.91 116.467 150.581 115.164 152.659 114.268C154.777 113.373 157.141 112.925 159.749 112.925C162.642 112.925 165.148 113.474 167.267 114.574C169.426 115.632 171.076 117.077 172.217 118.909C173.399 120.741 173.99 122.777 173.99 125.016C173.99 126.726 173.562 128.476 172.706 130.268C171.851 132.059 170.567 133.993 168.856 136.069C167.592 137.657 166.227 139.224 164.761 140.771C163.294 142.318 161.114 144.557 158.221 147.488L157.304 148.404Z" fill="#000023"/>
<path d="M193.4 156.831C188.918 156.831 185.373 155.59 182.765 153.106C180.157 150.582 178.853 147.163 178.853 142.847V126.726C178.853 122.492 180.157 119.133 182.765 116.65C185.373 114.166 188.918 112.925 193.4 112.925C197.882 112.925 201.427 114.166 204.035 116.65C206.684 119.133 208.008 122.492 208.008 126.726V142.847C208.008 147.163 206.684 150.582 204.035 153.106C201.427 155.59 197.882 156.831 193.4 156.831ZM193.4 149.442C195.234 149.442 196.68 148.893 197.74 147.794C198.84 146.654 199.39 145.147 199.39 143.275V126.481C199.39 124.609 198.84 123.123 197.74 122.024C196.68 120.884 195.234 120.314 193.4 120.314C191.607 120.314 190.161 120.884 189.06 122.024C188.001 123.123 187.471 124.609 187.471 126.481V143.275C187.471 145.147 188.001 146.654 189.06 147.794C190.161 148.893 191.607 149.442 193.4 149.442Z" fill="#000023"/>
<path d="M223.918 148.404C223.837 148.486 223.817 148.567 223.857 148.649C223.898 148.73 223.98 148.771 224.102 148.771H240.666C240.869 148.771 241.032 148.852 241.154 149.015C241.317 149.137 241.399 149.3 241.399 149.503V155.427C241.399 155.63 241.317 155.814 241.154 155.976C241.032 156.099 240.869 156.16 240.666 156.16H213.161C212.957 156.16 212.774 156.099 212.611 155.976C212.489 155.814 212.428 155.63 212.428 155.427V149.809C212.428 149.442 212.55 149.137 212.794 148.893C214.791 146.939 216.828 144.822 218.906 142.542C220.985 140.221 222.289 138.776 222.818 138.206C223.959 136.863 225.12 135.58 226.302 134.359C230.01 130.247 231.864 127.194 231.864 125.199C231.864 123.774 231.355 122.614 230.336 121.718C229.317 120.782 227.993 120.314 226.363 120.314C224.733 120.314 223.409 120.782 222.39 121.718C221.372 122.614 220.862 123.815 220.862 125.321V126.848C220.862 127.051 220.781 127.235 220.618 127.397C220.496 127.52 220.333 127.581 220.129 127.581H212.917C212.713 127.581 212.53 127.52 212.367 127.397C212.244 127.235 212.183 127.051 212.183 126.848V123.978C212.305 121.779 212.998 119.846 214.261 118.176C215.524 116.467 217.195 115.164 219.273 114.268C221.392 113.373 223.755 112.925 226.363 112.925C229.256 112.925 231.762 113.474 233.881 114.574C236.041 115.632 237.691 117.077 238.832 118.909C240.014 120.741 240.604 122.777 240.604 125.016C240.604 126.726 240.177 128.476 239.321 130.268C238.465 132.059 237.182 133.993 235.47 136.069C234.207 137.657 232.842 139.224 231.375 140.771C229.908 142.318 227.728 144.557 224.835 147.488L223.918 148.404Z" fill="#000023"/>
<path d="M270.975 135.764C271.79 137.636 272.198 139.794 272.198 142.237C272.198 144.435 271.831 146.47 271.097 148.343C270.12 150.949 268.469 152.984 266.147 154.45C263.865 155.915 261.155 156.648 258.018 156.648C254.921 156.648 252.191 155.875 249.827 154.328C247.505 152.781 245.834 150.684 244.816 148.038C244.245 146.45 243.919 144.74 243.838 142.908C243.838 142.42 244.082 142.175 244.571 142.175H251.783C252.272 142.175 252.517 142.42 252.517 142.908C252.68 144.252 252.904 145.249 253.189 145.901C253.556 146.959 254.147 147.794 254.962 148.404C255.817 148.974 256.816 149.259 257.957 149.259C260.238 149.259 261.807 148.262 262.663 146.267C263.233 145.046 263.519 143.621 263.519 141.992C263.519 140.079 263.213 138.512 262.602 137.29C261.665 135.377 260.096 134.42 257.895 134.42C257.447 134.42 256.979 134.563 256.49 134.848C256.001 135.092 255.41 135.458 254.717 135.947C254.554 136.069 254.391 136.13 254.228 136.13C253.984 136.13 253.8 136.008 253.678 135.764L250.072 130.695C249.99 130.573 249.95 130.43 249.95 130.268C249.95 130.023 250.031 129.82 250.194 129.657L259.912 121.169C259.994 121.087 260.014 121.006 259.973 120.924C259.973 120.843 259.912 120.802 259.79 120.802H245.427C245.223 120.802 245.04 120.741 244.877 120.619C244.754 120.456 244.693 120.273 244.693 120.07V114.146C244.693 113.943 244.754 113.78 244.877 113.658C245.04 113.495 245.223 113.413 245.427 113.413H270.914C271.118 113.413 271.281 113.495 271.403 113.658C271.566 113.78 271.648 113.943 271.648 114.146V120.863C271.648 121.189 271.505 121.494 271.22 121.779L263.213 129.107C263.131 129.189 263.091 129.27 263.091 129.352C263.131 129.433 263.233 129.474 263.396 129.474C266.941 130.166 269.468 132.262 270.975 135.764Z" fill="#000023"/>
<path d="M170.452 101.961C169.579 101.961 168.812 101.792 168.149 101.455C167.486 101.105 166.974 100.622 166.613 100.005C166.253 99.3886 166.072 98.6728 166.072 97.8581V93.5458C166.072 92.7311 166.253 92.0153 166.613 91.3984C166.974 90.7816 167.486 90.3044 168.149 89.9668C168.812 89.6293 169.579 89.4605 170.452 89.4605C171.312 89.4605 172.074 89.6235 172.737 89.9494C173.4 90.2753 173.912 90.735 174.273 91.3286C174.633 91.9222 174.813 92.6089 174.813 93.3887C174.813 93.4469 174.79 93.4993 174.744 93.5458C174.709 93.5807 174.662 93.5982 174.604 93.5982L172.999 93.6855C172.859 93.6855 172.79 93.6215 172.79 93.4934C172.79 92.8067 172.574 92.2539 172.144 91.8349C171.725 91.4159 171.161 91.2064 170.452 91.2064C169.742 91.2064 169.172 91.4159 168.742 91.8349C168.311 92.2539 168.096 92.8067 168.096 93.4934V97.9454C168.096 98.6204 168.311 99.1675 168.742 99.5865C169.172 100.005 169.742 100.215 170.452 100.215C171.161 100.215 171.725 100.011 172.144 99.6039C172.574 99.1849 172.79 98.6321 172.79 97.9454C172.79 97.8173 172.859 97.7533 172.999 97.7533L174.604 97.8231C174.662 97.8231 174.709 97.8406 174.744 97.8755C174.79 97.9104 174.813 97.9512 174.813 97.9977C174.813 98.7892 174.633 99.4875 174.273 100.093C173.912 100.686 173.4 101.146 172.737 101.472C172.074 101.798 171.312 101.961 170.452 101.961Z" fill="#000023"/>
<path d="M181.119 101.996C180.246 101.996 179.473 101.821 178.798 101.472C178.124 101.111 177.6 100.605 177.228 99.9531C176.867 99.3013 176.687 98.5506 176.687 97.7009V93.7204C176.687 92.8824 176.873 92.1433 177.245 91.5032C177.618 90.8514 178.135 90.3509 178.798 90.0017C179.473 89.6409 180.246 89.4605 181.119 89.4605C182.003 89.4605 182.776 89.6409 183.439 90.0017C184.114 90.3509 184.637 90.8514 185.009 91.5032C185.382 92.1433 185.568 92.8824 185.568 93.7204V97.7009C185.568 98.5506 185.382 99.3013 185.009 99.9531C184.637 100.605 184.114 101.111 183.439 101.472C182.776 101.821 182.003 101.996 181.119 101.996ZM181.119 100.25C181.852 100.25 182.439 100.023 182.881 99.569C183.323 99.1151 183.544 98.5157 183.544 97.7708V93.7029C183.544 92.9464 183.323 92.3412 182.881 91.8873C182.439 91.4333 181.852 91.2064 181.119 91.2064C180.398 91.2064 179.816 91.4333 179.374 91.8873C178.932 92.3412 178.711 92.9464 178.711 93.7029V97.7708C178.711 98.5157 178.932 99.1151 179.374 99.569C179.816 100.023 180.398 100.25 181.119 100.25Z" fill="#000023"/>
<path d="M194.921 89.8097C194.921 89.7515 194.939 89.7049 194.973 89.67C195.02 89.6235 195.072 89.6002 195.13 89.6002H196.736C196.794 89.6002 196.84 89.6235 196.875 89.67C196.922 89.7049 196.945 89.7515 196.945 89.8097V101.612C196.945 101.67 196.922 101.722 196.875 101.769C196.84 101.804 196.794 101.821 196.736 101.821H195.183C195.066 101.821 194.985 101.775 194.939 101.681L189.914 93.4411C189.89 93.4061 189.867 93.3945 189.844 93.4061C189.821 93.4061 189.809 93.4294 189.809 93.476L189.844 101.612C189.844 101.67 189.821 101.722 189.774 101.769C189.739 101.804 189.693 101.821 189.635 101.821H188.029C187.971 101.821 187.919 101.804 187.872 101.769C187.838 101.722 187.82 101.67 187.82 101.612V89.8097C187.82 89.7515 187.838 89.7049 187.872 89.67C187.919 89.6235 187.971 89.6002 188.029 89.6002H189.582C189.699 89.6002 189.78 89.6468 189.826 89.7399L194.834 97.9803C194.857 98.0152 194.88 98.0327 194.904 98.0327C194.927 98.021 194.939 97.9919 194.939 97.9454L194.921 89.8097Z" fill="#000023"/>
<path d="M207.59 91.1365C207.59 91.1947 207.567 91.2471 207.521 91.2937C207.486 91.3286 207.439 91.346 207.381 91.346H201.449C201.391 91.346 201.362 91.3751 201.362 91.4333V94.6981C201.362 94.7563 201.391 94.7854 201.449 94.7854H205.444C205.503 94.7854 205.549 94.8086 205.584 94.8552C205.631 94.8901 205.654 94.9367 205.654 94.9949V96.3217C205.654 96.3799 205.631 96.4323 205.584 96.4788C205.549 96.5138 205.503 96.5312 205.444 96.5312H201.449C201.391 96.5312 201.362 96.5603 201.362 96.6185V101.612C201.362 101.67 201.339 101.722 201.292 101.769C201.257 101.804 201.211 101.821 201.152 101.821H199.547C199.489 101.821 199.437 101.804 199.39 101.769C199.355 101.722 199.338 101.67 199.338 101.612V89.8097C199.338 89.7515 199.355 89.7049 199.39 89.67C199.437 89.6235 199.489 89.6002 199.547 89.6002H207.381C207.439 89.6002 207.486 89.6235 207.521 89.67C207.567 89.7049 207.59 89.7515 207.59 89.8097V91.1365Z" fill="#000023"/>
<path d="M217.439 91.1365C217.439 91.1947 217.416 91.2471 217.369 91.2937C217.334 91.3286 217.288 91.346 217.23 91.346H211.28C211.222 91.346 211.193 91.3751 211.193 91.4333V94.6981C211.193 94.7563 211.222 94.7854 211.28 94.7854H215.275C215.334 94.7854 215.38 94.8086 215.415 94.8552C215.462 94.8901 215.485 94.9367 215.485 94.9949V96.3217C215.485 96.3799 215.462 96.4323 215.415 96.4788C215.38 96.5138 215.334 96.5312 215.275 96.5312H211.28C211.222 96.5312 211.193 96.5603 211.193 96.6185V99.988C211.193 100.046 211.222 100.075 211.28 100.075H217.23C217.288 100.075 217.334 100.099 217.369 100.145C217.416 100.18 217.439 100.227 217.439 100.285V101.612C217.439 101.67 217.416 101.722 217.369 101.769C217.334 101.804 217.288 101.821 217.23 101.821H209.378C209.32 101.821 209.268 101.804 209.221 101.769C209.186 101.722 209.169 101.67 209.169 101.612V89.8097C209.169 89.7515 209.186 89.7049 209.221 89.67C209.268 89.6235 209.32 89.6002 209.378 89.6002H217.23C217.288 89.6002 217.334 89.6235 217.369 89.67C217.416 89.7049 217.439 89.7515 217.439 89.8097V91.1365Z" fill="#000023"/>
<path d="M226.351 101.821C226.235 101.821 226.153 101.769 226.107 101.664L223.804 96.636C223.78 96.5894 223.745 96.5661 223.699 96.5661H221.605C221.547 96.5661 221.518 96.5952 221.518 96.6534V101.612C221.518 101.67 221.495 101.722 221.448 101.769C221.413 101.804 221.367 101.821 221.309 101.821H219.703C219.645 101.821 219.593 101.804 219.546 101.769C219.512 101.722 219.494 101.67 219.494 101.612V89.8097C219.494 89.7515 219.512 89.7049 219.546 89.67C219.593 89.6235 219.645 89.6002 219.703 89.6002H224.501C225.211 89.6002 225.839 89.7515 226.386 90.0541C226.932 90.3451 227.357 90.7641 227.659 91.3111C227.962 91.8465 228.113 92.4634 228.113 93.1617C228.113 93.9648 227.904 94.6515 227.485 95.2218C227.078 95.7805 226.508 96.1704 225.775 96.3916C225.752 96.3916 225.734 96.4032 225.723 96.4265C225.711 96.4497 225.711 96.473 225.723 96.4963L228.183 101.577C228.206 101.623 228.218 101.658 228.218 101.681C228.218 101.775 228.154 101.821 228.026 101.821H226.351ZM221.605 91.346C221.547 91.346 221.518 91.3751 221.518 91.4333V94.9076C221.518 94.9658 221.547 94.9949 221.605 94.9949H224.222C224.781 94.9949 225.228 94.8319 225.566 94.506C225.915 94.1685 226.089 93.7262 226.089 93.1792C226.089 92.6322 225.915 92.1899 225.566 91.8523C225.228 91.5148 224.781 91.346 224.222 91.346H221.605Z" fill="#000023"/>
<path d="M238.464 91.1365C238.464 91.1947 238.441 91.2471 238.394 91.2937C238.359 91.3286 238.313 91.346 238.255 91.346H232.305C232.247 91.346 232.218 91.3751 232.218 91.4333V94.6981C232.218 94.7563 232.247 94.7854 232.305 94.7854H236.301C236.359 94.7854 236.405 94.8086 236.44 94.8552C236.487 94.8901 236.51 94.9367 236.51 94.9949V96.3217C236.51 96.3799 236.487 96.4323 236.44 96.4788C236.405 96.5138 236.359 96.5312 236.301 96.5312H232.305C232.247 96.5312 232.218 96.5603 232.218 96.6185V99.988C232.218 100.046 232.247 100.075 232.305 100.075H238.255C238.313 100.075 238.359 100.099 238.394 100.145C238.441 100.18 238.464 100.227 238.464 100.285V101.612C238.464 101.67 238.441 101.722 238.394 101.769C238.359 101.804 238.313 101.821 238.255 101.821H230.403C230.345 101.821 230.293 101.804 230.246 101.769C230.212 101.722 230.194 101.67 230.194 101.612V89.8097C230.194 89.7515 230.212 89.7049 230.246 89.67C230.293 89.6235 230.345 89.6002 230.403 89.6002H238.255C238.313 89.6002 238.359 89.6235 238.394 89.67C238.441 89.7049 238.464 89.7515 238.464 89.8097V91.1365Z" fill="#000023"/>
<path d="M247.62 89.8097C247.62 89.7515 247.638 89.7049 247.673 89.67C247.719 89.6235 247.771 89.6002 247.83 89.6002H249.435C249.493 89.6002 249.539 89.6235 249.574 89.67C249.621 89.7049 249.644 89.7515 249.644 89.8097V101.612C249.644 101.67 249.621 101.722 249.574 101.769C249.539 101.804 249.493 101.821 249.435 101.821H247.882C247.766 101.821 247.684 101.775 247.638 101.681L242.613 93.4411C242.59 93.4061 242.566 93.3945 242.543 93.4061C242.52 93.4061 242.508 93.4294 242.508 93.476L242.543 101.612C242.543 101.67 242.52 101.722 242.473 101.769C242.438 101.804 242.392 101.821 242.334 101.821H240.729C240.67 101.821 240.618 101.804 240.572 101.769C240.537 101.722 240.519 101.67 240.519 101.612V89.8097C240.519 89.7515 240.537 89.7049 240.572 89.67C240.618 89.6235 240.67 89.6002 240.729 89.6002H242.281C242.398 89.6002 242.479 89.6468 242.526 89.7399L247.533 97.9803C247.556 98.0152 247.58 98.0327 247.603 98.0327C247.626 98.021 247.638 97.9919 247.638 97.9454L247.62 89.8097Z" fill="#000023"/>
<path d="M256.273 101.961C255.401 101.961 254.633 101.792 253.97 101.455C253.307 101.105 252.795 100.622 252.435 100.005C252.074 99.3886 251.894 98.6728 251.894 97.8581V93.5458C251.894 92.7311 252.074 92.0153 252.435 91.3984C252.795 90.7816 253.307 90.3044 253.97 89.9668C254.633 89.6293 255.401 89.4605 256.273 89.4605C257.134 89.4605 257.896 89.6235 258.559 89.9494C259.222 90.2753 259.733 90.735 260.094 91.3286C260.455 91.9222 260.635 92.6089 260.635 93.3887C260.635 93.4469 260.612 93.4993 260.565 93.5458C260.53 93.5807 260.484 93.5982 260.426 93.5982L258.82 93.6855C258.681 93.6855 258.611 93.6215 258.611 93.4934C258.611 92.8067 258.396 92.2539 257.965 91.8349C257.547 91.4159 256.983 91.2064 256.273 91.2064C255.564 91.2064 254.994 91.4159 254.563 91.8349C254.133 92.2539 253.918 92.8067 253.918 93.4934V97.9454C253.918 98.6204 254.133 99.1675 254.563 99.5865C254.994 100.005 255.564 100.215 256.273 100.215C256.983 100.215 257.547 100.011 257.965 99.6039C258.396 99.1849 258.611 98.6321 258.611 97.9454C258.611 97.8173 258.681 97.7533 258.82 97.7533L260.426 97.8231C260.484 97.8231 260.53 97.8406 260.565 97.8755C260.612 97.9104 260.635 97.9512 260.635 97.9977C260.635 98.7892 260.455 99.4875 260.094 100.093C259.733 100.686 259.222 101.146 258.559 101.472C257.896 101.798 257.134 101.961 256.273 101.961Z" fill="#000023"/>
<path d="M271.075 91.1365C271.075 91.1947 271.052 91.2471 271.005 91.2937C270.971 91.3286 270.924 91.346 270.866 91.346H264.916C264.858 91.346 264.829 91.3751 264.829 91.4333V94.6981C264.829 94.7563 264.858 94.7854 264.916 94.7854H268.912C268.97 94.7854 269.016 94.8086 269.051 94.8552C269.098 94.8901 269.121 94.9367 269.121 94.9949V96.3217C269.121 96.3799 269.098 96.4323 269.051 96.4788C269.016 96.5138 268.97 96.5312 268.912 96.5312H264.916C264.858 96.5312 264.829 96.5603 264.829 96.6185V99.988C264.829 100.046 264.858 100.075 264.916 100.075H270.866C270.924 100.075 270.971 100.099 271.005 100.145C271.052 100.18 271.075 100.227 271.075 100.285V101.612C271.075 101.67 271.052 101.722 271.005 101.769C270.971 101.804 270.924 101.821 270.866 101.821H263.015C262.956 101.821 262.904 101.804 262.858 101.769C262.823 101.722 262.805 101.67 262.805 101.612V89.8097C262.805 89.7515 262.823 89.7049 262.858 89.67C262.904 89.6235 262.956 89.6002 263.015 89.6002H270.866C270.924 89.6002 270.971 89.6235 271.005 89.67C271.052 89.7049 271.075 89.7515 271.075 89.8097V91.1365Z" fill="#000023"/>
<path d="M153.587 85.4102C148.187 85.4106 143.81 89.6836 143.81 94.9551C143.81 100.226 148.187 104.499 153.587 104.5C158.987 104.499 163.363 100.227 163.364 94.9551C163.364 89.6836 158.987 85.4106 153.587 85.4102ZM159.09 100.327C157.678 101.704 155.739 102.552 153.587 102.552C151.434 102.552 149.495 101.703 148.084 100.327C146.674 98.9489 145.805 97.0557 145.804 94.9551C145.805 92.854 146.674 90.9608 148.084 89.5827C149.496 88.2061 151.435 87.3578 153.587 87.3573C155.739 87.3578 157.679 88.2066 159.09 89.5827C160.501 90.9612 161.37 92.8545 161.37 94.9551C161.369 97.0557 160.5 98.9489 159.09 100.327Z" fill="#000023"/>
<path d="M152.275 92.8075C153.395 92.8075 154.302 91.8994 154.302 90.7792C154.302 89.659 153.395 88.7509 152.275 88.7509C151.156 88.7509 150.248 89.659 150.248 90.7792C150.248 91.8994 151.156 92.8075 152.275 92.8075Z" fill="#000023"/>
<path d="M158.595 94.955C158.595 96.1423 157.688 97.1026 156.567 97.1026C155.45 97.1026 154.541 96.1413 154.541 94.955C154.541 93.7678 155.45 92.8074 156.567 92.8074C157.689 92.8069 158.595 93.7683 158.595 94.955Z" fill="#000023"/>
<path d="M152.275 101.159C153.395 101.159 154.302 100.251 154.302 99.131C154.302 98.0108 153.395 97.1027 152.275 97.1027C151.156 97.1027 150.248 98.0108 150.248 99.131C150.248 100.251 151.156 101.159 152.275 101.159Z" fill="#000023"/>
<g style="mix-blend-mode:multiply">
<path fill-rule="evenodd" clip-rule="evenodd" d="M47.2352 0L0 0.18365L54.3794 95.1775L54.3567 95.217L108.983 191.193H155.264L100.547 95.371L100.637 95.2171L47.2352 0ZM100.547 95.371L77.4971 55.0059L54.3794 95.1775L77.2039 135.049L100.547 95.371Z" fill="#000023"/>
</g>
<g style="mix-blend-mode:multiply">
<path fill-rule="evenodd" clip-rule="evenodd" d="M78.1243 54.6937L86.9807 39.4524H133.261L77.1176 135.808L76.8613 135.355L100.637 95.217L78.1243 54.6937ZM78.1243 54.6937L77.8762 54.2471L20.2148 154.775H65.3576L76.8613 135.355L54.3565 95.5963L78.1243 54.6937Z" fill="#000023"/>
</g>
</svg>
