<svg width="340" height="110" viewBox="0 0 340 110" fill="none" xmlns="http://www.w3.org/2000/svg">
<path d="M20.543 37.9571H9.78374V56.4892H2.61035V9.36475H20.5414C29.7722 9.36475 35.6801 15.4542 35.6801 23.6609C35.6801 31.8676 29.7722 37.9571 20.543 37.9571ZM20.1429 15.7846H9.78211V31.4705H20.1429C25.1233 31.4705 28.51 28.6243 28.51 23.6609C28.51 18.6959 25.1233 15.7846 20.1429 15.7846Z" fill="#FEFEFE"/>
<path d="M51.3976 56.4892C45.1098 56.4892 42.2944 52.1865 42.2944 47.2247V9.36475H48.9752V46.8277C48.9752 49.4103 49.8884 50.7316 52.5749 50.7316H55.5223V56.4892H51.3976Z" fill="#FEFEFE"/>
<path d="M86.1431 53.3024C83.8825 55.5791 80.4629 57.3163 75.7414 57.3163C71.0233 57.3163 67.6693 55.5758 65.412 53.3024C62.1304 49.9597 61.3096 45.6744 61.3096 39.9217C61.3096 34.2349 62.1304 29.9512 65.412 26.6069C67.6693 24.3318 71.0233 22.593 75.7414 22.593C80.4629 22.593 83.8825 24.3351 86.1431 26.6069C89.4248 29.9512 90.2456 34.2349 90.2456 39.9217C90.249 45.6761 89.4248 49.9581 86.1431 53.3024ZM80.8733 30.624C79.5731 29.3524 77.7952 28.6813 75.7414 28.6813C73.691 28.6813 71.9804 29.3491 70.6785 30.624C68.5591 32.6984 68.2867 36.2435 68.2867 39.9217C68.2867 43.6 68.5591 47.1484 70.6785 49.2211C71.9787 50.4894 73.691 51.228 75.7414 51.228C77.7952 51.228 79.5714 50.4927 80.8733 49.2211C82.996 47.1451 83.2685 43.6 83.2685 39.9217C83.2685 36.2435 82.996 32.6968 80.8733 30.624Z" fill="#FEFEFE"/>
<path d="M117.371 56.4895V36.0736C117.371 30.8523 114.383 28.6055 110.601 28.6055C106.819 28.6055 103.629 30.9173 103.629 36.0736V56.4879H96.8594V22.9894H103.495V26.3588C105.821 23.8472 109.071 22.593 112.457 22.593C115.91 22.593 118.766 23.7156 120.756 25.6326C123.345 28.1425 124.142 31.3137 124.142 35.0794V56.4879L117.371 56.4895Z" fill="#FEFEFE"/>
<path d="M137.551 41.9303C137.551 47.7488 140.647 51.4287 146.232 51.4287C150.065 51.4287 152.087 50.3611 154.511 47.9495L158.884 52.0308C155.385 55.5084 152.089 57.3163 146.099 57.3163C137.551 57.3163 130.756 52.8336 130.756 39.9217C130.756 28.9478 136.476 22.593 145.224 22.593C154.376 22.593 159.692 29.2833 159.692 38.9199V41.9303H137.551V41.9303ZM151.952 32.5619C150.876 30.0203 148.455 28.2782 145.224 28.2782C141.996 28.2782 139.504 30.0203 138.428 32.5619C137.757 34.1016 137.621 35.1051 137.553 37.1795H152.896C152.825 35.1051 152.627 34.1 151.952 32.5619Z" fill="#FEFEFE"/>
<path d="M33.0392 88.0174C31.9573 88.0174 31.0053 87.8082 30.1831 87.3899C29.361 86.9572 28.7263 86.3586 28.2791 85.5941C27.832 84.8296 27.6084 83.9425 27.6084 82.9328V77.5886C27.6084 76.5789 27.832 75.6918 28.2791 74.9273C28.7263 74.1628 29.361 73.5714 30.1831 73.1531C31.0053 72.7348 31.9573 72.5256 33.0392 72.5256C34.1066 72.5256 35.0514 72.7276 35.8735 73.1315C36.6957 73.5353 37.3304 74.1051 37.7776 74.8407C38.2247 75.5764 38.4483 76.4274 38.4483 77.3938C38.4483 77.466 38.4194 77.5309 38.3617 77.5886C38.3185 77.6318 38.2608 77.6535 38.1886 77.6535L36.1981 77.7617C36.025 77.7617 35.9385 77.6823 35.9385 77.5237C35.9385 76.6726 35.6716 75.9875 35.1379 75.4682C34.6186 74.9489 33.919 74.6893 33.0392 74.6893C32.1593 74.6893 31.4525 74.9489 30.9188 75.4682C30.3851 75.9875 30.1182 76.6726 30.1182 77.5237V83.041C30.1182 83.8776 30.3851 84.5555 30.9188 85.0748C31.4525 85.5941 32.1593 85.8537 33.0392 85.8537C33.919 85.8537 34.6186 85.6013 35.1379 85.0964C35.6716 84.5772 35.9385 83.892 35.9385 83.041C35.9385 82.8823 36.025 82.803 36.1981 82.803L38.1886 82.8895C38.2608 82.8895 38.3185 82.9112 38.3617 82.9544C38.4194 82.9977 38.4483 83.0482 38.4483 83.1059C38.4483 84.0867 38.2247 84.9522 37.7776 85.7023C37.3304 86.4379 36.6957 87.0077 35.8735 87.4116C35.0514 87.8154 34.1066 88.0174 33.0392 88.0174Z" fill="#FEFEFE"/>
<path d="M46.2677 88.0606C45.1859 88.0606 44.2266 87.8443 43.39 87.4116C42.5534 86.9644 41.9043 86.3369 41.4427 85.5292C40.9956 84.7214 40.772 83.791 40.772 82.7381V77.8049C40.772 76.7664 41.0028 75.8504 41.4644 75.0571C41.926 74.2493 42.5678 73.6291 43.39 73.1964C44.2266 72.7492 45.1859 72.5256 46.2677 72.5256C47.3639 72.5256 48.3232 72.7492 49.1453 73.1964C49.982 73.6291 50.631 74.2493 51.0926 75.0571C51.5542 75.8504 51.785 76.7664 51.785 77.8049V82.7381C51.785 83.791 51.5542 84.7214 51.0926 85.5292C50.631 86.3369 49.982 86.9644 49.1453 87.4116C48.3232 87.8443 47.3639 88.0606 46.2677 88.0606ZM46.2677 85.897C47.1764 85.897 47.9048 85.6157 48.453 85.0532C49.0011 84.4906 49.2752 83.7478 49.2752 82.8246V77.7833C49.2752 76.8457 49.0011 76.0957 48.453 75.5331C47.9048 74.9706 47.1764 74.6893 46.2677 74.6893C45.3734 74.6893 44.6522 74.9706 44.104 75.5331C43.5559 76.0957 43.2818 76.8457 43.2818 77.7833V82.8246C43.2818 83.7478 43.5559 84.4906 44.104 85.0532C44.6522 85.6157 45.3734 85.897 46.2677 85.897Z" fill="#FEFEFE"/>
<path d="M63.3842 72.9584C63.3842 72.8862 63.4058 72.8285 63.4491 72.7853C63.5068 72.7276 63.5717 72.6987 63.6438 72.6987H65.6344C65.7065 72.6987 65.7642 72.7276 65.8075 72.7853C65.8652 72.8285 65.894 72.8862 65.894 72.9584V87.5846C65.894 87.6568 65.8652 87.7217 65.8075 87.7794C65.7642 87.8226 65.7065 87.8443 65.6344 87.8443H63.7087C63.5645 87.8443 63.4635 87.7866 63.4058 87.6712L57.1745 77.4588C57.1457 77.4155 57.1168 77.4011 57.088 77.4155C57.0591 77.4155 57.0447 77.4443 57.0447 77.502L57.088 87.5846C57.088 87.6568 57.0591 87.7217 57.0014 87.7794C56.9581 87.8226 56.9004 87.8443 56.8283 87.8443H54.8378C54.7656 87.8443 54.7007 87.8226 54.643 87.7794C54.5998 87.7217 54.5781 87.6568 54.5781 87.5846V72.9584C54.5781 72.8862 54.5998 72.8285 54.643 72.7853C54.7007 72.7276 54.7656 72.6987 54.8378 72.6987H56.7634C56.9077 72.6987 57.0086 72.7564 57.0663 72.8718L63.276 83.0842C63.3049 83.1275 63.3337 83.1492 63.3625 83.1492C63.3914 83.1347 63.4058 83.0987 63.4058 83.041L63.3842 72.9584Z" fill="#FEFEFE"/>
<path d="M79.0957 74.6027C79.0957 74.6749 79.0668 74.7398 79.0091 74.7975C78.9658 74.8407 78.9081 74.8624 78.836 74.8624H71.4796C71.4075 74.8624 71.3714 74.8984 71.3714 74.9706V79.0166C71.3714 79.0887 71.4075 79.1248 71.4796 79.1248H76.4344C76.5065 79.1248 76.5642 79.1536 76.6075 79.2113C76.6652 79.2546 76.694 79.3123 76.694 79.3844V81.0288C76.694 81.1009 76.6652 81.1658 76.6075 81.2235C76.5642 81.2668 76.5065 81.2884 76.4344 81.2884H71.4796C71.4075 81.2884 71.3714 81.3245 71.3714 81.3966V87.5846C71.3714 87.6568 71.3426 87.7217 71.2849 87.7794C71.2416 87.8226 71.1839 87.8443 71.1118 87.8443H69.1212C69.0491 87.8443 68.9842 87.8226 68.9265 87.7794C68.8832 87.7217 68.8616 87.6568 68.8616 87.5846V72.9584C68.8616 72.8862 68.8832 72.8285 68.9265 72.7853C68.9842 72.7276 69.0491 72.6987 69.1212 72.6987H78.836C78.9081 72.6987 78.9658 72.7276 79.0091 72.7853C79.0668 72.8285 79.0957 72.8862 79.0957 72.9584V74.6027Z" fill="#FEFEFE"/>
<path d="M91.309 74.6027C91.309 74.6749 91.2801 74.7398 91.2224 74.7975C91.1791 74.8407 91.1214 74.8624 91.0493 74.8624H83.6713C83.5992 74.8624 83.5631 74.8984 83.5631 74.9706V79.0166C83.5631 79.0887 83.5992 79.1248 83.6713 79.1248H88.626C88.6982 79.1248 88.7559 79.1536 88.7991 79.2113C88.8568 79.2546 88.8857 79.3123 88.8857 79.3844V81.0288C88.8857 81.1009 88.8568 81.1658 88.7991 81.2235C88.7559 81.2668 88.6982 81.2884 88.626 81.2884H83.6713C83.5992 81.2884 83.5631 81.3245 83.5631 81.3966V85.5724C83.5631 85.6446 83.5992 85.6806 83.6713 85.6806H91.0493C91.1214 85.6806 91.1791 85.7095 91.2224 85.7672C91.2801 85.8104 91.309 85.8681 91.309 85.9403V87.5846C91.309 87.6568 91.2801 87.7217 91.2224 87.7794C91.1791 87.8226 91.1214 87.8443 91.0493 87.8443H81.3129C81.2408 87.8443 81.1759 87.8226 81.1182 87.7794C81.0749 87.7217 81.0533 87.6568 81.0533 87.5846V72.9584C81.0533 72.8862 81.0749 72.8285 81.1182 72.7853C81.1759 72.7276 81.2408 72.6987 81.3129 72.6987H91.0493C91.1214 72.6987 91.1791 72.7276 91.2224 72.7853C91.2801 72.8285 91.309 72.8862 91.309 72.9584V74.6027Z" fill="#FEFEFE"/>
<path d="M102.361 87.8443C102.217 87.8443 102.116 87.7794 102.058 87.6496L99.2019 81.4182C99.173 81.3605 99.1298 81.3317 99.0721 81.3317H96.4757C96.4036 81.3317 96.3675 81.3678 96.3675 81.4399V87.5846C96.3675 87.6568 96.3387 87.7217 96.281 87.7794C96.2377 87.8226 96.18 87.8443 96.1079 87.8443H94.1173C94.0452 87.8443 93.9803 87.8226 93.9226 87.7794C93.8793 87.7217 93.8577 87.6568 93.8577 87.5846V72.9584C93.8577 72.8862 93.8793 72.8285 93.9226 72.7853C93.9803 72.7276 94.0452 72.6987 94.1173 72.6987H100.067C100.947 72.6987 101.726 72.8862 102.404 73.2613C103.082 73.6219 103.609 74.1412 103.984 74.8191C104.359 75.4826 104.546 76.2471 104.546 77.1126C104.546 78.1079 104.286 78.9589 103.767 79.6657C103.262 80.358 102.556 80.8413 101.647 81.1153C101.618 81.1153 101.596 81.1298 101.582 81.1586C101.567 81.1874 101.567 81.2163 101.582 81.2451L104.633 87.5414C104.661 87.5991 104.676 87.6423 104.676 87.6712C104.676 87.7866 104.597 87.8443 104.438 87.8443H102.361ZM96.4757 74.8624C96.4036 74.8624 96.3675 74.8984 96.3675 74.9706V79.2762C96.3675 79.3483 96.4036 79.3844 96.4757 79.3844H99.7212C100.414 79.3844 100.969 79.1825 101.387 78.7786C101.82 78.3603 102.036 77.8122 102.036 77.1342C102.036 76.4563 101.82 75.9081 101.387 75.4898C100.969 75.0715 100.414 74.8624 99.7212 74.8624H96.4757Z" fill="#FEFEFE"/>
<path d="M117.383 74.6027C117.383 74.6749 117.354 74.7398 117.296 74.7975C117.253 74.8407 117.195 74.8624 117.123 74.8624H109.745C109.673 74.8624 109.637 74.8984 109.637 74.9706V79.0166C109.637 79.0887 109.673 79.1248 109.745 79.1248H114.7C114.772 79.1248 114.83 79.1536 114.873 79.2113C114.93 79.2546 114.959 79.3123 114.959 79.3844V81.0288C114.959 81.1009 114.93 81.1658 114.873 81.2235C114.83 81.2668 114.772 81.2884 114.7 81.2884H109.745C109.673 81.2884 109.637 81.3245 109.637 81.3966V85.5724C109.637 85.6446 109.673 85.6806 109.745 85.6806H117.123C117.195 85.6806 117.253 85.7095 117.296 85.7672C117.354 85.8104 117.383 85.8681 117.383 85.9403V87.5846C117.383 87.6568 117.354 87.7217 117.296 87.7794C117.253 87.8226 117.195 87.8443 117.123 87.8443H107.387C107.314 87.8443 107.25 87.8226 107.192 87.7794C107.149 87.7217 107.127 87.6568 107.127 87.5846V72.9584C107.127 72.8862 107.149 72.8285 107.192 72.7853C107.25 72.7276 107.314 72.6987 107.387 72.6987H117.123C117.195 72.6987 117.253 72.7276 117.296 72.7853C117.354 72.8285 117.383 72.8862 117.383 72.9584V74.6027Z" fill="#FEFEFE"/>
<path d="M128.737 72.9584C128.737 72.8862 128.759 72.8285 128.802 72.7853C128.86 72.7276 128.925 72.6987 128.997 72.6987H130.988C131.06 72.6987 131.117 72.7276 131.161 72.7853C131.218 72.8285 131.247 72.8862 131.247 72.9584V87.5846C131.247 87.6568 131.218 87.7217 131.161 87.7794C131.117 87.8226 131.06 87.8443 130.988 87.8443H129.062C128.918 87.8443 128.817 87.7866 128.759 87.6712L122.528 77.4588C122.499 77.4155 122.47 77.4011 122.441 77.4155C122.412 77.4155 122.398 77.4443 122.398 77.502L122.441 87.5846C122.441 87.6568 122.412 87.7217 122.355 87.7794C122.311 87.8226 122.254 87.8443 122.182 87.8443H120.191C120.119 87.8443 120.054 87.8226 119.996 87.7794C119.953 87.7217 119.931 87.6568 119.931 87.5846V72.9584C119.931 72.8862 119.953 72.8285 119.996 72.7853C120.054 72.7276 120.119 72.6987 120.191 72.6987H122.117C122.261 72.6987 122.362 72.7564 122.42 72.8718L128.629 83.0842C128.658 83.1275 128.687 83.1492 128.716 83.1492C128.745 83.1347 128.759 83.0987 128.759 83.041L128.737 72.9584Z" fill="#FEFEFE"/>
<path d="M139.468 88.0174C138.386 88.0174 137.434 87.8082 136.612 87.3899C135.79 86.9572 135.155 86.3586 134.708 85.5941C134.261 84.8296 134.037 83.9425 134.037 82.9328V77.5886C134.037 76.5789 134.261 75.6918 134.708 74.9273C135.155 74.1628 135.79 73.5714 136.612 73.1531C137.434 72.7348 138.386 72.5256 139.468 72.5256C140.535 72.5256 141.48 72.7276 142.302 73.1315C143.124 73.5353 143.759 74.1051 144.206 74.8407C144.653 75.5764 144.877 76.4274 144.877 77.3938C144.877 77.466 144.848 77.5309 144.791 77.5886C144.747 77.6318 144.69 77.6535 144.617 77.6535L142.627 77.7617C142.454 77.7617 142.367 77.6823 142.367 77.5237C142.367 76.6726 142.1 75.9875 141.567 75.4682C141.047 74.9489 140.348 74.6893 139.468 74.6893C138.588 74.6893 137.881 74.9489 137.348 75.4682C136.814 75.9875 136.547 76.6726 136.547 77.5237V83.041C136.547 83.8776 136.814 84.5555 137.348 85.0748C137.881 85.5941 138.588 85.8537 139.468 85.8537C140.348 85.8537 141.047 85.6013 141.567 85.0964C142.1 84.5772 142.367 83.892 142.367 83.041C142.367 82.8823 142.454 82.803 142.627 82.803L144.617 82.8895C144.69 82.8895 144.747 82.9112 144.791 82.9544C144.848 82.9977 144.877 83.0482 144.877 83.1059C144.877 84.0867 144.653 84.9522 144.206 85.7023C143.759 86.4379 143.124 87.0077 142.302 87.4116C141.48 87.8154 140.535 88.0174 139.468 88.0174Z" fill="#FEFEFE"/>
<path d="M157.824 74.6027C157.824 74.6749 157.795 74.7398 157.738 74.7975C157.694 74.8407 157.637 74.8624 157.565 74.8624H150.187C150.114 74.8624 150.078 74.8984 150.078 74.9706V79.0166C150.078 79.0887 150.114 79.1248 150.187 79.1248H155.141C155.213 79.1248 155.271 79.1536 155.314 79.2113C155.372 79.2546 155.401 79.3123 155.401 79.3844V81.0288C155.401 81.1009 155.372 81.1658 155.314 81.2235C155.271 81.2668 155.213 81.2884 155.141 81.2884H150.187C150.114 81.2884 150.078 81.3245 150.078 81.3966V85.5724C150.078 85.6446 150.114 85.6806 150.187 85.6806H157.565C157.637 85.6806 157.694 85.7095 157.738 85.7672C157.795 85.8104 157.824 85.8681 157.824 85.9403V87.5846C157.824 87.6568 157.795 87.7217 157.738 87.7794C157.694 87.8226 157.637 87.8443 157.565 87.8443H147.828C147.756 87.8443 147.691 87.8226 147.634 87.7794C147.59 87.7217 147.569 87.6568 147.569 87.5846V72.9584C147.569 72.8862 147.59 72.8285 147.634 72.7853C147.691 72.7276 147.756 72.6987 147.828 72.6987H157.565C157.637 72.6987 157.694 72.7276 157.738 72.7853C157.795 72.8285 157.824 72.8862 157.824 72.9584V74.6027Z" fill="#FEFEFE"/>
<path d="M12.1245 67.5059C5.42868 67.5064 0.000596034 72.802 0 79.335C0.000596034 85.8673 5.42868 91.1629 12.1245 91.1641C18.821 91.1629 24.2485 85.8685 24.2497 79.335C24.2491 72.802 18.8216 67.5064 12.1245 67.5059ZM18.9491 85.9924C17.1986 87.6984 14.7936 88.7497 12.1245 88.7503C9.45549 88.7497 7.05049 87.6973 5.29994 85.9924C3.55177 84.2845 2.47414 81.9383 2.47354 79.335C2.47414 76.7311 3.55177 74.3848 5.30053 72.677C7.05109 70.9709 9.45608 69.9196 12.1251 69.919C14.7942 69.9196 17.1992 70.9715 18.9497 72.677C20.6985 74.3854 21.7761 76.7317 21.7767 79.335C21.7755 81.9383 20.6979 84.2845 18.9491 85.9924Z" fill="#FEFEFE"/>
<path d="M10.4981 76.6734C11.8863 76.6734 13.0117 75.5479 13.0117 74.1597C13.0117 72.7714 11.8863 71.646 10.4981 71.646C9.10979 71.646 7.98438 72.7714 7.98438 74.1597C7.98438 75.5479 9.10979 76.6734 10.4981 76.6734Z" fill="#FEFEFE"/>
<path d="M18.335 79.3349C18.335 80.8063 17.2106 81.9964 15.8207 81.9964C14.4348 81.9964 13.3076 80.8051 13.3076 79.3349C13.3076 77.8635 14.4354 76.6733 15.8207 76.6733C17.2118 76.6727 18.335 77.8641 18.335 79.3349Z" fill="#FEFEFE"/>
<path d="M10.4981 87.0239C11.8863 87.0239 13.0117 85.8985 13.0117 84.5103C13.0117 83.122 11.8863 81.9966 10.4981 81.9966C9.10979 81.9966 7.98438 83.122 7.98438 84.5103C7.98438 85.8985 9.10979 87.0239 10.4981 87.0239Z" fill="#FEFEFE"/>
<path d="M255.151 73.0138C255.151 73.0946 255.119 73.1673 255.054 73.2319C255.006 73.2804 254.941 73.3046 254.861 73.3046H246.597C246.516 73.3046 246.476 73.345 246.476 73.4258V77.9573C246.476 78.0381 246.516 78.0785 246.597 78.0785H252.147C252.227 78.0785 252.292 78.1108 252.34 78.1754C252.405 78.2239 252.437 78.2885 252.437 78.3693V80.211C252.437 80.2918 252.405 80.3645 252.34 80.4291C252.292 80.4776 252.227 80.5018 252.147 80.5018H246.597C246.516 80.5018 246.476 80.5422 246.476 80.623V85.2999C246.476 85.3807 246.516 85.4211 246.597 85.4211H254.861C254.941 85.4211 255.006 85.4534 255.054 85.518C255.119 85.5665 255.151 85.6311 255.151 85.7119V87.5536C255.151 87.6343 255.119 87.707 255.054 87.7717C255.006 87.8201 254.941 87.8444 254.861 87.8444H243.956C243.875 87.8444 243.802 87.8201 243.738 87.7717C243.689 87.707 243.665 87.6343 243.665 87.5536V71.1721C243.665 71.0914 243.689 71.0267 243.738 70.9783C243.802 70.9137 243.875 70.8813 243.956 70.8813H254.861C254.941 70.8813 255.006 70.9137 255.054 70.9783C255.119 71.0267 255.151 71.0914 255.151 71.1721V73.0138Z" fill="#FEFEFE"/>
<path d="M258.297 87.8444C258.216 87.8444 258.143 87.8201 258.079 87.7717C258.03 87.707 258.006 87.6343 258.006 87.5536V71.1721C258.006 71.0914 258.03 71.0267 258.079 70.9783C258.143 70.9137 258.216 70.8813 258.297 70.8813H260.526C260.607 70.8813 260.672 70.9137 260.72 70.9783C260.785 71.0267 260.817 71.0914 260.817 71.1721V87.5536C260.817 87.6343 260.785 87.707 260.72 87.7717C260.672 87.8201 260.607 87.8444 260.526 87.8444H258.297Z" fill="#FEFEFE"/>
<path d="M273.823 78.9994C273.726 79.0478 273.726 79.0963 273.823 79.1448C275.471 79.9202 276.295 81.253 276.295 83.1432C276.295 84.6779 275.778 85.8492 274.744 86.657C273.726 87.4486 272.394 87.8444 270.746 87.8444H264.639C264.558 87.8444 264.486 87.8201 264.421 87.7717C264.372 87.707 264.348 87.6343 264.348 87.5536V71.1721C264.348 71.0914 264.372 71.0267 264.421 70.9783C264.486 70.9137 264.558 70.8813 264.639 70.8813H270.552C272.313 70.8813 273.67 71.261 274.623 72.0203C275.576 72.7796 276.053 73.9266 276.053 75.4614C276.053 77.1577 275.31 78.337 273.823 78.9994ZM267.28 73.3046C267.2 73.3046 267.159 73.345 267.159 73.4258V77.9089C267.159 77.9897 267.2 78.03 267.28 78.03H270.552C271.408 78.03 272.078 77.8281 272.563 77.4242C273.064 77.0042 273.314 76.4307 273.314 75.7037C273.314 74.9605 273.064 74.379 272.563 73.9589C272.078 73.5227 271.408 73.3046 270.552 73.3046H267.28ZM270.746 85.3968C271.586 85.3968 272.248 85.1707 272.733 84.7183C273.234 84.266 273.484 83.6521 273.484 82.8766C273.484 82.085 273.234 81.4711 272.733 81.0349C272.232 80.5826 271.553 80.3564 270.697 80.3564H267.28C267.2 80.3564 267.159 80.3968 267.159 80.4776V85.2757C267.159 85.3565 267.2 85.3968 267.28 85.3968H270.746Z" fill="#FEFEFE"/>
<path d="M289.135 87.8444C288.974 87.8444 288.869 87.7636 288.82 87.602L288.02 85.0091C287.988 84.9445 287.948 84.9122 287.899 84.9122H281.502C281.453 84.9122 281.413 84.9445 281.381 85.0091L280.581 87.602C280.533 87.7636 280.428 87.8444 280.266 87.8444H277.843C277.746 87.8444 277.673 87.8201 277.625 87.7717C277.576 87.707 277.568 87.6182 277.6 87.5051L282.859 71.1237C282.907 70.9621 283.012 70.8813 283.174 70.8813H286.203C286.365 70.8813 286.47 70.9621 286.518 71.1237L291.801 87.5051C291.817 87.5374 291.825 87.5778 291.825 87.6263C291.825 87.7717 291.736 87.8444 291.558 87.8444H289.135ZM282.132 82.5616C282.116 82.6585 282.148 82.707 282.229 82.707H287.148C287.245 82.707 287.277 82.6585 287.245 82.5616L284.749 74.4436C284.733 74.379 284.709 74.3467 284.676 74.3467C284.644 74.3467 284.62 74.379 284.604 74.4436L282.132 82.5616Z" fill="#FEFEFE"/>
<path d="M303.855 87.8444C303.694 87.8444 303.581 87.7717 303.516 87.6263L300.317 80.6472C300.285 80.5826 300.236 80.5503 300.172 80.5503H297.264C297.183 80.5503 297.143 80.5907 297.143 80.6714V87.5536C297.143 87.6343 297.11 87.707 297.046 87.7717C296.997 87.8201 296.933 87.8444 296.852 87.8444H294.622C294.542 87.8444 294.469 87.8201 294.404 87.7717C294.356 87.707 294.332 87.6343 294.332 87.5536V71.1721C294.332 71.0914 294.356 71.0267 294.404 70.9783C294.469 70.9137 294.542 70.8813 294.622 70.8813H301.286C302.272 70.8813 303.144 71.0914 303.904 71.5114C304.663 71.9153 305.253 72.4969 305.673 73.2562C306.093 73.9993 306.303 74.8555 306.303 75.8249C306.303 76.9396 306.012 77.8927 305.43 78.6843C304.865 79.4598 304.073 80.001 303.055 80.3079C303.023 80.3079 302.999 80.3241 302.983 80.3564C302.967 80.3887 302.967 80.421 302.983 80.4533L306.4 87.5051C306.432 87.5697 306.448 87.6182 306.448 87.6505C306.448 87.7797 306.359 87.8444 306.182 87.8444H303.855ZM297.264 73.3046C297.183 73.3046 297.143 73.345 297.143 73.4258V78.2481C297.143 78.3289 297.183 78.3693 297.264 78.3693H300.899C301.674 78.3693 302.296 78.1431 302.765 77.6908C303.249 77.2223 303.492 76.6084 303.492 75.8491C303.492 75.0898 303.249 74.4759 302.765 74.0074C302.296 73.5389 301.674 73.3046 300.899 73.3046H297.264Z" fill="#FEFEFE"/>
<path d="M250.788 51.2093C250.725 51.2728 250.693 51.3363 250.693 51.3997C250.725 51.4632 250.788 51.4949 250.884 51.4949H264.45C264.608 51.4949 264.735 51.5584 264.831 51.6853C264.957 51.7805 265.021 51.9075 265.021 52.0661V55.6838C265.021 55.8424 264.957 55.9852 264.831 56.1122C264.735 56.2074 264.608 56.255 264.45 56.255H243.982C243.823 56.255 243.68 56.2074 243.553 56.1122C243.458 55.9852 243.41 55.8424 243.41 55.6838V52.2565C243.41 51.9709 243.506 51.7329 243.696 51.5425C246.108 48.9721 248.9 45.8146 252.074 42.0701L254.311 39.4521C257.23 36.0566 258.69 33.4862 258.69 31.7408C258.69 30.4397 258.23 29.3767 257.31 28.5516C256.389 27.7265 255.199 27.314 253.74 27.314C252.28 27.314 251.09 27.7265 250.17 28.5516C249.281 29.3767 248.837 30.4715 248.837 31.836V33.0736C248.837 33.2323 248.773 33.3751 248.646 33.502C248.551 33.5972 248.424 33.6448 248.266 33.6448H243.839C243.68 33.6448 243.537 33.5972 243.41 33.502C243.315 33.3751 243.268 33.2323 243.268 33.0736V31.0268C243.331 29.3132 243.823 27.8217 244.743 26.5524C245.663 25.283 246.901 24.2993 248.456 23.6012C250.043 22.903 251.804 22.554 253.74 22.554C255.866 22.554 257.722 22.9506 259.309 23.744C260.896 24.5373 262.117 25.6321 262.974 27.0284C263.831 28.3929 264.259 29.932 264.259 31.6456C264.259 34.2478 262.879 37.2466 260.118 40.6421C258.595 42.5461 256.088 45.4021 252.597 49.2101L250.788 51.2093Z" fill="#FEFEFE"/>
<path d="M279.767 56.7786C276.435 56.7786 273.785 55.8424 271.817 53.9702C269.882 52.0661 268.914 49.5116 268.914 46.3065V32.8832C268.914 29.7099 269.882 27.2029 271.817 25.3624C273.785 23.4901 276.435 22.554 279.767 22.554C283.099 22.554 285.748 23.4901 287.716 25.3624C289.715 27.2029 290.715 29.7099 290.715 32.8832V46.3065C290.715 49.5116 289.715 52.0661 287.716 53.9702C285.748 55.8424 283.099 56.7786 279.767 56.7786ZM279.767 51.9709C281.417 51.9709 282.734 51.4949 283.717 50.5429C284.701 49.5592 285.193 48.2423 285.193 46.5921V32.6928C285.193 31.0427 284.701 29.7416 283.717 28.7896C282.734 27.8059 281.417 27.314 279.767 27.314C278.148 27.314 276.847 27.8059 275.863 28.7896C274.911 29.7416 274.435 31.0427 274.435 32.6928V46.5921C274.435 48.2423 274.911 49.5592 275.863 50.5429C276.847 51.4949 278.148 51.9709 279.767 51.9709Z" fill="#FEFEFE"/>
<path d="M302.156 51.2093C302.092 51.2728 302.061 51.3363 302.061 51.3997C302.092 51.4632 302.156 51.4949 302.251 51.4949H315.817C315.976 51.4949 316.103 51.5584 316.198 51.6853C316.325 51.7805 316.388 51.9075 316.388 52.0661V55.6838C316.388 55.8424 316.325 55.9852 316.198 56.1122C316.103 56.2074 315.976 56.255 315.817 56.255H295.349C295.19 56.255 295.048 56.2074 294.921 56.1122C294.825 55.9852 294.778 55.8424 294.778 55.6838V52.2565C294.778 51.9709 294.873 51.7329 295.063 51.5425C297.475 48.9721 300.268 45.8146 303.441 42.0701L305.678 39.4521C308.598 36.0566 310.058 33.4862 310.058 31.7408C310.058 30.4397 309.597 29.3767 308.677 28.5516C307.757 27.7265 306.567 27.314 305.107 27.314C303.647 27.314 302.457 27.7265 301.537 28.5516C300.649 29.3767 300.204 30.4715 300.204 31.836V33.0736C300.204 33.2323 300.141 33.3751 300.014 33.502C299.919 33.5972 299.792 33.6448 299.633 33.6448H295.206C295.048 33.6448 294.905 33.5972 294.778 33.502C294.683 33.3751 294.635 33.2323 294.635 33.0736V31.0268C294.698 29.3132 295.19 27.8217 296.111 26.5524C297.031 25.283 298.268 24.2993 299.823 23.6012C301.41 22.903 303.171 22.554 305.107 22.554C307.233 22.554 309.09 22.9506 310.676 23.744C312.263 24.5373 313.485 25.6321 314.342 27.0284C315.198 28.3929 315.627 29.932 315.627 31.6456C315.627 34.2478 314.246 37.2466 311.486 40.6421C309.962 42.5461 307.455 45.4021 303.965 49.2101L302.156 51.2093Z" fill="#FEFEFE"/>
<path d="M339.048 40.4041C339.683 41.9273 340 43.6726 340 45.6401C340 47.4172 339.73 48.988 339.191 50.3525C338.461 52.3517 337.255 53.9067 335.573 55.0174C333.891 56.0963 331.86 56.6358 329.48 56.6358C327.132 56.6358 325.085 56.0487 323.34 54.8746C321.626 53.6687 320.404 52.0503 319.675 50.0193C319.294 49.0356 319.072 47.7504 319.008 46.1637C319.008 45.7829 319.199 45.5925 319.579 45.5925H324.006C324.387 45.5925 324.577 45.7829 324.577 46.1637C324.641 47.1792 324.8 47.9884 325.053 48.5913C325.339 49.6068 325.863 50.416 326.624 51.0189C327.418 51.5901 328.37 51.8757 329.48 51.8757C331.575 51.8757 333.019 50.9237 333.812 49.0197C334.224 48.0995 334.431 46.9094 334.431 45.4497C334.431 43.8313 334.193 42.4985 333.717 41.4513C332.892 39.6742 331.464 38.7857 329.433 38.7857C328.893 38.7857 328.163 39.103 327.243 39.7377C327.116 39.8011 327.005 39.8329 326.91 39.8329C326.751 39.8329 326.593 39.7377 326.434 39.5473L324.244 36.5008C324.149 36.3422 324.101 36.2152 324.101 36.12C324.101 35.9614 324.165 35.8186 324.292 35.6916L332.146 27.9804C332.209 27.9169 332.225 27.8535 332.193 27.79C332.162 27.7265 332.098 27.6948 332.003 27.6948H320.103C319.944 27.6948 319.802 27.6472 319.675 27.552C319.579 27.4251 319.532 27.2823 319.532 27.1236V23.506C319.532 23.3473 319.579 23.2204 319.675 23.1252C319.802 22.9982 319.944 22.9348 320.103 22.9348H339.096C339.254 22.9348 339.381 22.9982 339.476 23.1252C339.603 23.2204 339.667 23.3473 339.667 23.506V27.6472C339.667 27.9328 339.572 28.1708 339.381 28.3612L332.574 35.2156C332.447 35.3426 332.511 35.4378 332.765 35.5012C335.716 35.9138 337.81 37.5481 339.048 40.4041Z" fill="#FEFEFE"/>
<path fill-rule="evenodd" clip-rule="evenodd" d="M183.31 0L156.697 0.43273L187.406 54.2486L187.372 54.3076L187.377 54.3175L167.899 88.2767H193.646L200.208 77.2L200.354 77.4584L200.452 77.2895L218.528 109.048H244.925L213.754 54.461L232.376 22.5017H205.979L200.928 31.1949L200.786 30.9399L200.724 31.049L183.31 0ZM200.866 31.302L200.724 31.049L190.804 48.3433L187.406 54.2486L187.411 54.2584L187.377 54.3175L187.434 54.417L187.372 54.5237L200.208 77.2L200.307 77.0332L200.452 77.2895L213.754 54.461L213.717 54.3955L213.768 54.3076L213.768 54.3074L200.928 31.1949L200.866 31.302ZM200.696 31.5938L200.57 31.3729L190.804 48.3433L187.411 54.2584L187.468 54.3582L187.434 54.417L200.307 77.0332L200.358 76.9467L187.468 54.3582L200.696 31.5938ZM213.768 54.3074L200.866 31.302L213.768 54.3074L213.768 54.3074Z" fill="#FEFEFE"/>
</svg>
