<svg width="275" height="63" viewBox="0 0 275 63" fill="none" xmlns="http://www.w3.org/2000/svg">
<path d="M28.9295 13.6858C28.9295 14.8959 28.4488 16.0565 27.5932 16.9122C26.7376 17.7678 25.5771 18.2486 24.3671 18.2486C23.1571 18.2486 21.9966 17.7678 21.141 16.9122C20.2854 16.0565 19.8047 14.8959 19.8047 13.6858C19.8047 12.4757 20.2854 11.3151 21.141 10.4595C21.9966 9.60378 23.1571 9.12305 24.3671 9.12305C25.5771 9.12305 26.7376 9.60378 27.5932 10.4595C28.4488 11.3151 28.9295 12.4757 28.9295 13.6858Z" fill="white"/>
<path d="M38.2054 22.802C38.2054 25.3238 36.1647 27.3637 33.642 27.3637C31.1265 27.3637 29.0806 25.3217 29.0806 22.802C29.0806 20.2801 31.1276 18.2402 33.642 18.2402C36.1668 18.2393 38.2054 20.2811 38.2054 22.802Z" fill="white"/>
<path d="M28.9149 31.9441C28.9149 32.5433 28.7969 33.1366 28.5676 33.6902C28.3383 34.2438 28.0022 34.7468 27.5785 35.1705C27.1549 35.5942 26.6519 35.9303 26.0984 36.1596C25.5449 36.3889 24.9516 36.5069 24.3524 36.5069C23.1424 36.5069 21.982 36.0262 21.1263 35.1705C20.2707 34.3148 19.79 33.1542 19.79 31.9441C19.79 31.3449 19.908 30.7516 20.1373 30.198C20.3666 29.6444 20.7027 29.1415 21.1263 28.7178C21.55 28.2941 22.0529 27.958 22.6065 27.7287C23.16 27.4994 23.7533 27.3813 24.3524 27.3813C24.9516 27.3813 25.5449 27.4994 26.0984 27.7287C26.6519 27.958 27.1549 28.294 27.5785 28.7177C28.0022 29.1414 28.3383 29.6444 28.5676 30.198C28.7969 30.7516 28.9149 31.3449 28.9149 31.9441Z" fill="white"/>
<path d="M27.0886 1.70264C15.4453 1.70367 6.00641 11.1433 6.00537 22.7886C6.00641 34.4329 15.4453 43.8725 27.0886 43.8746C38.7331 43.8725 48.1709 34.435 48.173 22.7886C48.1719 11.1433 38.7341 1.70367 27.0886 1.70264ZM38.9559 34.6557C35.9119 37.6969 31.7298 39.5709 27.0886 39.572C22.4475 39.5709 18.2654 37.6948 15.2214 34.6557C12.1815 31.6115 10.3076 27.4291 10.3066 22.7886C10.3076 18.1471 12.1815 13.9647 15.2224 10.9204C18.2665 7.87927 22.4485 6.00524 27.0897 6.0042C31.7309 6.00524 35.9129 7.88031 38.9569 10.9204C41.9978 13.9657 43.8717 18.1481 43.8728 22.7886C43.8707 27.4291 41.9968 31.6115 38.9559 34.6557Z" fill="white"/>
<path d="M10.8747 56.0591H7.94294V61.1265H5.98828V48.2407H10.8743C13.3896 48.2407 14.9994 49.9059 14.9994 52.1499C14.9994 54.394 13.3895 56.0591 10.8747 56.0591ZM10.7657 49.9962H7.94249V54.2854H10.7657C12.1228 54.2854 13.0456 53.5071 13.0456 52.1499C13.0456 50.7923 12.1228 49.9962 10.7657 49.9962Z" fill="white"/>
<path d="M19.1696 61.1265C17.4326 61.1265 16.6548 59.95 16.6548 58.5933V48.2407H18.5004V58.4847C18.5004 59.1909 18.7527 59.5522 19.4949 59.5522H20.3091V61.1265H19.1696Z" fill="white"/>
<path d="M28.4213 60.1487C27.8233 60.7646 26.9187 61.2345 25.6697 61.2345C24.4216 61.2345 23.5344 60.7637 22.9373 60.1487C22.0692 59.2445 21.8521 58.0854 21.8521 56.5293C21.8521 54.9909 22.0692 53.8322 22.9373 52.9276C23.5344 52.3121 24.4216 51.8418 25.6697 51.8418C26.9187 51.8418 27.8233 52.313 28.4213 52.9276C29.2894 53.8322 29.5065 54.9909 29.5065 56.5293C29.5073 58.0858 29.2894 59.2441 28.4213 60.1487ZM27.0272 54.0142C26.6833 53.6702 26.213 53.4887 25.6697 53.4887C25.1273 53.4887 24.6748 53.6693 24.3304 54.0142C23.7698 54.5753 23.6977 55.5343 23.6977 56.5293C23.6977 57.5242 23.7698 58.4841 24.3304 59.0447C24.6744 59.3878 25.1273 59.5876 25.6697 59.5876C26.213 59.5876 26.6829 59.3887 27.0272 59.0447C27.5888 58.4832 27.6609 57.5242 27.6609 56.5293C27.6609 55.5343 27.5888 54.5749 27.0272 54.0142Z" fill="white"/>
<path d="M36.8222 61.1264V55.5343C36.8222 54.1041 36.008 53.4887 34.977 53.4887C33.9461 53.4887 33.0766 54.1219 33.0766 55.5343V61.1259H31.2314V51.9504H33.0402V52.8733C33.6742 52.1853 34.5601 51.8418 35.4829 51.8418C36.424 51.8418 37.2027 52.1493 37.745 52.6744C38.4507 53.3619 38.6679 54.2305 38.6679 55.2619V61.1259L36.8222 61.1264Z" fill="white"/>
<path d="M42.219 57.0726C42.219 58.6465 43.0515 59.6419 44.5532 59.6419C45.5841 59.6419 46.1279 59.3531 46.7797 58.7008L47.9557 59.8048C47.0147 60.7455 46.1283 61.2345 44.5176 61.2345C42.219 61.2345 40.3916 60.0219 40.3916 56.5293C40.3916 53.5608 41.9298 51.8418 44.2822 51.8418C46.7432 51.8418 48.1729 53.6515 48.1729 56.2583V57.0726H42.219ZM46.0914 54.5384C45.8022 53.8509 45.1512 53.3797 44.2822 53.3797C43.4141 53.3797 42.744 53.8509 42.4548 54.5384C42.2742 54.9549 42.2377 55.2263 42.2194 55.7875H46.3454C46.3263 55.2263 46.2729 54.9545 46.0914 54.5384Z" fill="white"/>
<path d="M50.3227 50.1597C49.791 50.1597 49.3599 50.5917 49.3599 51.1244C49.3608 51.657 49.791 52.0891 50.3227 52.0891C50.8562 52.0891 51.2892 51.657 51.2892 51.1244C51.2892 50.5917 50.8562 50.1597 50.3227 50.1597ZM50.3227 51.9476C49.8684 51.9467 49.5014 51.5796 49.5014 51.1244C49.5023 50.6701 49.8684 50.3016 50.3227 50.3007C50.7779 50.3016 51.1468 50.6692 51.1477 51.1244C51.1463 51.5796 50.7779 51.9467 50.3227 51.9476Z" fill="white"/>
<path d="M50.5554 51.6986L50.3151 51.218H50.0989V51.6986H49.9258V50.5576H50.3681C50.5834 50.5576 50.7222 50.6969 50.7222 50.8914C50.7222 51.0547 50.6226 51.1592 50.494 51.1939L50.7574 51.6994L50.5554 51.6986ZM50.3547 50.7134H50.0989V51.0707H50.3547C50.4708 51.0707 50.5492 51.0053 50.5492 50.8931C50.5492 50.781 50.4708 50.7134 50.3547 50.7134Z" fill="white"/>
<path d="M62.766 1.87402H61.0635V61.2976H62.766V1.87402Z" fill="white"/>
<path d="M79.3615 19.0709H94.4377V16.1948H76.1807V46.2625H79.3615V32.4924H92.2591V29.6163H79.3615V19.0709Z" fill="white"/>
<path d="M98.8821 44.3887C100.407 45.8267 102.455 46.5239 105.069 46.5239C107.597 46.5239 109.601 45.8267 111.126 44.3451C112.651 42.9071 113.435 40.5976 113.435 37.4601V32.9281C113.435 29.7906 112.651 27.5247 111.126 26.0431C109.601 24.6051 107.597 23.8643 105.069 23.8643C102.455 23.8643 100.407 24.6051 98.8821 26.0431C97.3135 27.5247 96.5728 29.7906 96.5728 32.9281V37.4601C96.5728 40.6411 97.3135 42.9507 98.8821 44.3887ZM108.991 42.4278C108.032 43.3865 106.725 43.8658 105.069 43.8658C103.327 43.8658 101.976 43.3865 101.017 42.4278C100.015 41.4691 99.5357 39.726 99.5357 37.2858V33.1024C99.5357 30.7057 100.015 29.0063 101.017 28.0476C101.976 27.0889 103.327 26.566 105.069 26.566C106.725 26.566 108.032 27.0889 108.991 28.0476C109.95 29.0063 110.473 30.7057 110.473 33.1024V37.2858C110.473 39.726 109.95 41.4691 108.991 42.4278Z" fill="white"/>
<path d="M121.278 44.3888C122.629 45.8269 124.633 46.5241 127.335 46.5241C130.036 46.5241 132.084 45.8269 133.435 44.3888C134.786 42.9508 135.483 40.8592 135.483 38.1574V24.1694H132.52V37.7652C132.52 39.8569 132.128 41.4257 131.344 42.3843C130.559 43.3866 129.209 43.8659 127.378 43.8659C125.505 43.8659 124.198 43.3866 123.413 42.3408C122.629 41.3385 122.237 39.8133 122.237 37.7652V24.1694H119.274V38.1574C119.274 40.8592 119.928 42.9508 121.278 44.3888Z" fill="white"/>
<path d="M142.019 24.1692V46.2624H144.982V32.1872C144.982 30.4006 145.418 29.0061 146.376 28.0475C147.335 27.0888 148.599 26.5659 150.167 26.5659C151.736 26.5659 152.999 27.0452 153.914 28.0039C154.786 28.9626 155.265 30.357 155.265 32.1872V46.2624H158.228V31.7515C158.228 29.3112 157.575 27.3938 156.311 25.9994C155.047 24.6049 153.261 23.9077 150.908 23.9077C149.601 23.9077 148.468 24.1692 147.422 24.6485C146.376 25.1714 145.548 25.9122 144.938 26.8709V24.1692H142.019Z" fill="white"/>
<path d="M166.158 44.3451C167.553 45.8267 169.339 46.5239 171.518 46.5239C172.912 46.5239 174.089 46.2625 175.091 45.7396C176.093 45.2167 176.877 44.3887 177.487 43.3429V46.2625H180.494V16.1948H177.487V27.2632C176.18 24.9972 174.219 23.8643 171.561 23.8643C169.339 23.8643 167.553 24.6051 166.158 26.0867C164.764 27.5682 164.067 29.8342 164.067 32.9281V37.4601C164.067 40.5976 164.764 42.8635 166.158 44.3451ZM176.093 42.0356C175.134 43.2557 173.784 43.8658 171.954 43.8658C168.686 43.8658 167.073 41.687 167.073 37.2858V33.1024C167.073 28.7448 168.729 26.566 172.128 26.566C173.871 26.566 175.222 27.2196 176.137 28.4398C177.008 29.6599 177.487 31.3158 177.487 33.3639V37.2422C177.487 39.2467 177.008 40.8154 176.093 42.0356Z" fill="white"/>
<path d="M200.058 25.738C198.664 24.5179 196.703 23.8643 194.132 23.8643C191.736 23.8643 189.862 24.4307 188.512 25.5637C187.117 26.6967 186.464 28.2219 186.464 30.0957V30.3136H189.339V30.1828C189.339 29.0063 189.732 28.0912 190.603 27.3939C191.475 26.6967 192.651 26.3481 194.176 26.3481C195.745 26.3481 197.008 26.7839 197.88 27.5682C198.751 28.3962 199.187 29.6163 199.187 31.1851V33.7125H193.217C190.865 33.7125 189.034 34.279 187.727 35.412C186.42 36.545 185.81 38.0701 185.81 40.0311C185.81 42.1663 186.42 43.7786 187.727 44.868C188.991 46.001 190.777 46.524 193.13 46.524C194.525 46.524 195.745 46.3496 196.747 45.9139C197.705 45.4781 198.533 44.8245 199.231 43.9094V46.2625H202.15V31.2287C202.15 28.832 201.453 27.0018 200.058 25.738ZM197.836 42.82C196.965 43.6915 195.527 44.1273 193.61 44.1273C190.385 44.1273 188.773 42.7764 188.773 39.9875C188.773 37.2858 190.385 35.8913 193.653 35.8913H199.187V38.7674C199.187 40.5976 198.708 41.9484 197.836 42.82Z" fill="white"/>
<path d="M213.348 26.5226H218.316V24.1695H213.348V17.7202L210.342 19.1147V24.1695H206.899V26.5226H210.342V40.7721C210.342 42.5151 210.777 43.866 211.736 44.8247C212.695 45.7834 214.002 46.2627 215.701 46.2627H217.923V43.6481H216.18C214.263 43.6481 213.348 42.6459 213.348 40.6414V26.5226Z" fill="white"/>
<path d="M223.849 24.1691V46.2623H226.812V24.1691H223.849ZM223.762 16.6304V20.5522H226.899V16.6304H223.762Z" fill="white"/>
<path d="M235.308 44.3887C236.833 45.8267 238.881 46.5239 241.496 46.5239C244.023 46.5239 246.027 45.8267 247.552 44.3451C249.077 42.9071 249.862 40.5976 249.862 37.4601V32.9281C249.862 29.7906 249.077 27.5247 247.552 26.0431C246.027 24.6051 244.023 23.8643 241.496 23.8643C238.881 23.8643 236.833 24.6051 235.308 26.0431C233.74 27.5247 232.999 29.7906 232.999 32.9281V37.4601C232.999 40.6411 233.74 42.9507 235.308 44.3887ZM245.417 42.4278C244.459 43.3865 243.152 43.8658 241.496 43.8658C239.753 43.8658 238.402 43.3865 237.443 42.4278C236.441 41.4691 235.962 39.726 235.962 37.2858V33.1024C235.962 30.7057 236.441 29.0063 237.443 28.0476C238.402 27.0889 239.753 26.566 241.496 26.566C243.152 26.566 244.459 27.0889 245.417 28.0476C246.376 29.0063 246.899 30.7057 246.899 33.1024V37.2858C246.899 39.726 246.376 41.4691 245.417 42.4278Z" fill="white"/>
<path d="M255.701 24.1692V46.2624H258.664V32.1872C258.664 30.4006 259.099 29.0061 260.058 28.0475C261.017 27.0888 262.28 26.5659 263.849 26.5659C265.417 26.5659 266.681 27.0452 267.596 28.0039C268.468 28.9626 268.947 30.357 268.947 32.1872V46.2624H271.91V31.7515C271.91 29.3112 271.256 27.3938 269.993 25.9994C268.729 24.6049 266.942 23.9077 264.59 23.9077C263.282 23.9077 262.149 24.1692 261.104 24.6485C260.058 25.1714 259.23 25.9122 258.62 26.8709V24.1692H255.701Z" fill="white"/>
</svg>
