<svg width="88" height="89" viewBox="0 0 88 89" fill="none" xmlns="http://www.w3.org/2000/svg">
<rect x="0.000244141" width="88" height="89" fill="#FFD74D"/>
<path fill-rule="evenodd" clip-rule="evenodd" d="M27.3071 10.3089C27.051 10.5643 26.8478 10.8678 26.7092 11.2019C26.5706 11.536 26.4992 11.8942 26.4992 12.2559C26.4992 12.6176 26.5706 12.9758 26.7092 13.3099C26.8478 13.644 27.051 13.9474 27.3071 14.2029L58.3656 45.2559L27.3071 76.3089C26.7907 76.8253 26.5006 77.5256 26.5006 78.2559C26.5006 78.9862 26.7907 79.6865 27.3071 80.2029C27.8235 80.7193 28.5238 81.0094 29.2541 81.0094C29.9844 81.0094 30.6847 80.7193 31.2011 80.2029L64.2011 47.2029C64.4572 46.9474 64.6604 46.644 64.799 46.3099C64.9377 45.9758 65.009 45.6176 65.009 45.2559C65.009 44.8942 64.9377 44.536 64.799 44.2019C64.6604 43.8678 64.4572 43.5643 64.2011 43.3089L31.2011 10.3089C30.9457 10.0528 30.6422 9.84961 30.3081 9.71097C29.974 9.57234 29.6158 9.50097 29.2541 9.50097C28.8924 9.50097 28.5342 9.57234 28.2001 9.71097C27.866 9.84961 27.5626 10.0528 27.3071 10.3089Z" fill="white"/>
</svg>
