<svg width="606" height="217" viewBox="0 0 606 217" fill="none" xmlns="http://www.w3.org/2000/svg">
<path fill-rule="evenodd" clip-rule="evenodd" d="M587.708 96.9585L587.69 96.9894L587.669 96.9534L587.649 96.9895L576.476 77.9981L550.286 123.863H572.438L587.73 96.9957L587.708 96.9585ZM598.585 77.9243L598.556 77.8746L598.552 77.8828L598.58 77.9325L598.585 77.9243Z" fill="#990033"/>
<g style="mix-blend-mode:multiply">
<path fill-rule="evenodd" clip-rule="evenodd" d="M9.67893 -23.5939L28.8658 -34.5574L28.8627 -34.0736L28.6931 -18.1287L28.6247 -12.452L18.5545 -6.64736L9.59375 -1.5235L9.58547 -5.75776L9.67893 -23.5939Z" fill="#000023"/>
</g>
<g style="mix-blend-mode:multiply">
<path fill-rule="evenodd" clip-rule="evenodd" d="M483.947 188.53L503.134 177.566L503.131 178.038L502.961 194.002L502.893 199.672L492.809 205.484L483.862 210.6L483.853 206.371L483.947 188.53Z" fill="#000023"/>
</g>
<g style="mix-blend-mode:multiply">
<path fill-rule="evenodd" clip-rule="evenodd" d="M499.561 50L521.894 50.3631L496.002 95.1353L484.932 76.084L499.561 50ZM474.073 95.4452L474.149 95.5752H474L474.073 95.4452Z" fill="#0095D3"/>
</g>
<g style="mix-blend-mode:multiply">
<path d="M254.452 22.5105H276.604L280.598 30.8629L269.704 50.1098L254.452 22.5105Z" fill="#0095D3"/>
<path d="M254.452 22.5105H276.604L280.598 30.8629L269.704 50.1098L254.452 22.5105Z" fill="#0095D3"/>
</g>
<path d="M391.62 98.6031L392.165 76.1766L419.736 95.1405L400.599 105.172L391.62 98.6031Z" fill="#990033"/>
<path d="M391.62 98.6031L392.165 76.1766L419.736 95.1405L400.599 105.172L391.62 98.6031Z" fill="#990033"/>
<g style="mix-blend-mode:multiply">
<path d="M419.839 -35.0905L430.915 -15.9062L425.679 -8.27051L403.563 -8.08195L419.839 -35.0905Z" fill="#0095D3"/>
<path d="M419.839 -35.0905L430.915 -15.9062L425.679 -8.27051L403.563 -8.08195L419.839 -35.0905Z" fill="#0095D3"/>
</g>
</svg>
