<svg width="632" height="167" viewBox="0 0 632 167" fill="none" xmlns="http://www.w3.org/2000/svg">
<path fill-rule="evenodd" clip-rule="evenodd" d="M266.511 -0.916134L266.494 -0.885189L266.473 -0.921219L266.452 -0.885088L255.279 -19.8765L229.089 25.988H251.242L266.533 -0.878996L266.511 -0.916134ZM277.388 -19.9503L277.36 -20L277.355 -19.9919L277.384 -19.9421L277.388 -19.9503Z" fill="#990033"/>
<g style="mix-blend-mode:multiply">
<path fill-rule="evenodd" clip-rule="evenodd" d="M32.4111 28.4061L51.598 17.4426L51.5949 17.9264L51.4253 33.8713L51.3568 39.548L41.2867 45.3526L32.3259 50.4765L32.3176 46.2422L32.4111 28.4061Z" fill="#000023"/>
</g>
<g style="mix-blend-mode:multiply">
<path fill-rule="evenodd" clip-rule="evenodd" d="M124.157 99.66L130.535 78.2532L166.657 115.269L145.325 120.786L124.157 99.66ZM161.036 136.468L161.182 136.43L161.142 136.573L161.036 136.468Z" fill="#0095D3"/>
</g>
<path d="M0.00012207 156.797L10.8946 137.187L26.51 166.784H4.90263L0.00012207 156.797Z" fill="#990033"/>
<path d="M0.00012207 156.797L10.8946 137.187L26.51 166.784H4.90263L0.00012207 156.797Z" fill="#990033"/>
<g style="mix-blend-mode:multiply">
<path d="M277.184 74.5105H299.336L303.33 82.8629L292.436 102.11L277.184 74.5105Z" fill="#0095D3"/>
<path d="M277.184 74.5105H299.336L303.33 82.8629L292.436 102.11L277.184 74.5105Z" fill="#0095D3"/>
</g>
<g style="mix-blend-mode:multiply">
<path d="M442.571 16.9095L453.647 36.0938L448.411 43.7295L426.296 43.9181L442.571 16.9095Z" fill="#0095D3"/>
<path d="M442.571 16.9095L453.647 36.0938L448.411 43.7295L426.296 43.9181L442.571 16.9095Z" fill="#0095D3"/>
</g>
<path d="M604.894 36.5195L615.789 16.9094L631.404 46.5061H609.797L604.894 36.5195Z" fill="#990033"/>
<path d="M604.894 36.5195L615.789 16.9094L631.404 46.5061H609.797L604.894 36.5195Z" fill="#990033"/>
</svg>
