<svg width="340" height="108" viewBox="0 0 340 108" fill="none" xmlns="http://www.w3.org/2000/svg">
<path d="M32.4605 86.9015C31.3976 86.9015 30.4623 86.6961 29.6545 86.2851C28.8467 85.8599 28.2232 85.2718 27.7838 84.5207C27.3445 83.7696 27.1248 82.898 27.1248 81.906V76.6553C27.1248 75.6633 27.3445 74.7917 27.7838 74.0406C28.2232 73.2895 28.8467 72.7085 29.6545 72.2975C30.4623 71.8865 31.3976 71.681 32.4605 71.681C33.5092 71.681 34.4375 71.8794 35.2453 72.2762C36.0531 72.673 36.6766 73.2328 37.116 73.9556C37.5553 74.6784 37.775 75.5145 37.775 76.464C37.775 76.5349 37.7466 76.5986 37.6899 76.6553C37.6474 76.6978 37.5907 76.7191 37.5199 76.7191L35.5642 76.8254C35.3941 76.8254 35.3091 76.7474 35.3091 76.5916C35.3091 75.7554 35.0469 75.0823 34.5225 74.5721C34.0123 74.0619 33.325 73.8068 32.4605 73.8068C31.5961 73.8068 30.9016 74.0619 30.3773 74.5721C29.8529 75.0823 29.5907 75.7554 29.5907 76.5916V82.0123C29.5907 82.8342 29.8529 83.5003 30.3773 84.0105C30.9016 84.5207 31.5961 84.7758 32.4605 84.7758C33.325 84.7758 34.0123 84.5278 34.5225 84.0318C35.0469 83.5216 35.3091 82.8484 35.3091 82.0123C35.3091 81.8564 35.3941 81.7784 35.5642 81.7784L37.5199 81.8635C37.5907 81.8635 37.6474 81.8847 37.6899 81.9272C37.7466 81.9698 37.775 82.0194 37.775 82.076C37.775 83.0397 37.5553 83.89 37.116 84.627C36.6766 85.3497 36.0531 85.9095 35.2453 86.3063C34.4375 86.7031 33.5092 86.9015 32.4605 86.9015Z" fill="#0095D3"/>
<path d="M45.4575 86.9441C44.3946 86.9441 43.4522 86.7315 42.6302 86.3063C41.8082 85.867 41.1705 85.2505 40.717 84.4569C40.2777 83.6633 40.058 82.7492 40.058 81.7147V76.8679C40.058 75.8475 40.2848 74.9476 40.7383 74.1682C41.1918 73.3745 41.8224 72.7652 42.6302 72.34C43.4522 71.9007 44.3946 71.681 45.4575 71.681C46.5345 71.681 47.477 71.9007 48.2847 72.34C49.1067 72.7652 49.7444 73.3745 50.1979 74.1682C50.6514 74.9476 50.8782 75.8475 50.8782 76.8679V81.7147C50.8782 82.7492 50.6514 83.6633 50.1979 84.4569C49.7444 85.2505 49.1067 85.867 48.2847 86.3063C47.477 86.7315 46.5345 86.9441 45.4575 86.9441ZM45.4575 84.8183C46.3503 84.8183 47.066 84.5419 47.6045 83.9892C48.143 83.4365 48.4123 82.7067 48.4123 81.7997V76.8466C48.4123 75.9255 48.143 75.1885 47.6045 74.6358C47.066 74.0831 46.3503 73.8068 45.4575 73.8068C44.5788 73.8068 43.8702 74.0831 43.3317 74.6358C42.7932 75.1885 42.5239 75.9255 42.5239 76.8466V81.7997C42.5239 82.7067 42.7932 83.4365 43.3317 83.9892C43.8702 84.5419 44.5788 84.8183 45.4575 84.8183Z" fill="#0095D3"/>
<path d="M62.2743 72.1062C62.2743 72.0353 62.2956 71.9786 62.3381 71.9361C62.3948 71.8794 62.4585 71.8511 62.5294 71.8511H64.4851C64.556 71.8511 64.6127 71.8794 64.6552 71.9361C64.7119 71.9786 64.7402 72.0353 64.7402 72.1062V86.4764C64.7402 86.5472 64.7119 86.611 64.6552 86.6677C64.6127 86.7102 64.556 86.7315 64.4851 86.7315H62.5932C62.4515 86.7315 62.3523 86.6748 62.2956 86.5614L56.1733 76.5278C56.145 76.4853 56.1167 76.4711 56.0883 76.4853C56.06 76.4853 56.0458 76.5136 56.0458 76.5703L56.0883 86.4764C56.0883 86.5472 56.06 86.611 56.0033 86.6677C55.9608 86.7102 55.9041 86.7315 55.8332 86.7315H53.8775C53.8067 86.7315 53.7429 86.7102 53.6862 86.6677C53.6437 86.611 53.6224 86.5472 53.6224 86.4764V72.1062C53.6224 72.0353 53.6437 71.9786 53.6862 71.9361C53.7429 71.8794 53.8067 71.8511 53.8775 71.8511H55.7695C55.9112 71.8511 56.0104 71.9078 56.0671 72.0211L62.168 82.0548C62.1964 82.0973 62.2247 82.1186 62.2531 82.1186C62.2814 82.1044 62.2956 82.069 62.2956 82.0123L62.2743 72.1062Z" fill="#0095D3"/>
<path d="M77.7107 73.7218C77.7107 73.7926 77.6824 73.8564 77.6257 73.9131C77.5832 73.9556 77.5265 73.9769 77.4556 73.9769H70.228C70.1572 73.9769 70.1217 74.0123 70.1217 74.0831V78.0583C70.1217 78.1292 70.1572 78.1646 70.228 78.1646H75.096C75.1669 78.1646 75.2236 78.193 75.2661 78.2497C75.3228 78.2922 75.3511 78.3489 75.3511 78.4197V80.0353C75.3511 80.1062 75.3228 80.1699 75.2661 80.2266C75.2236 80.2691 75.1669 80.2904 75.096 80.2904H70.228C70.1572 80.2904 70.1217 80.3258 70.1217 80.3967V86.4764C70.1217 86.5472 70.0934 86.611 70.0367 86.6677C69.9942 86.7102 69.9375 86.7315 69.8666 86.7315H67.9109C67.8401 86.7315 67.7763 86.7102 67.7196 86.6677C67.6771 86.611 67.6558 86.5472 67.6558 86.4764V72.1062C67.6558 72.0353 67.6771 71.9786 67.7196 71.9361C67.7763 71.8794 67.8401 71.8511 67.9109 71.8511H77.4556C77.5265 71.8511 77.5832 71.8794 77.6257 71.9361C77.6824 71.9786 77.7107 72.0353 77.7107 72.1062V73.7218Z" fill="#0095D3"/>
<path d="M89.7102 73.7218C89.7102 73.7926 89.6819 73.8564 89.6252 73.9131C89.5827 73.9556 89.526 73.9769 89.4551 73.9769H82.2062C82.1354 73.9769 82.1 74.0123 82.1 74.0831V78.0583C82.1 78.1292 82.1354 78.1646 82.2062 78.1646H87.0743C87.1451 78.1646 87.2018 78.193 87.2443 78.2497C87.301 78.2922 87.3294 78.3489 87.3294 78.4197V80.0353C87.3294 80.1062 87.301 80.1699 87.2443 80.2266C87.2018 80.2691 87.1451 80.2904 87.0743 80.2904H82.2062C82.1354 80.2904 82.1 80.3258 82.1 80.3967V84.4994C82.1 84.5703 82.1354 84.6057 82.2062 84.6057H89.4551C89.526 84.6057 89.5827 84.6341 89.6252 84.6907C89.6819 84.7333 89.7102 84.7899 89.7102 84.8608V86.4764C89.7102 86.5472 89.6819 86.611 89.6252 86.6677C89.5827 86.7102 89.526 86.7315 89.4551 86.7315H79.8892C79.8183 86.7315 79.7545 86.7102 79.6978 86.6677C79.6553 86.611 79.6341 86.5472 79.6341 86.4764V72.1062C79.6341 72.0353 79.6553 71.9786 79.6978 71.9361C79.7545 71.8794 79.8183 71.8511 79.8892 71.8511H89.4551C89.526 71.8511 89.5827 71.8794 89.6252 71.9361C89.6819 71.9786 89.7102 72.0353 89.7102 72.1062V73.7218Z" fill="#0095D3"/>
<path d="M100.569 86.7315C100.427 86.7315 100.328 86.6677 100.271 86.5402L97.465 80.4179C97.4366 80.3613 97.3941 80.3329 97.3374 80.3329H94.7865C94.7156 80.3329 94.6802 80.3683 94.6802 80.4392V86.4764C94.6802 86.5472 94.6519 86.611 94.5952 86.6677C94.5527 86.7102 94.496 86.7315 94.4251 86.7315H92.4694C92.3985 86.7315 92.3348 86.7102 92.2781 86.6677C92.2356 86.611 92.2143 86.5472 92.2143 86.4764V72.1062C92.2143 72.0353 92.2356 71.9786 92.2781 71.9361C92.3348 71.8794 92.3985 71.8511 92.4694 71.8511H98.3153C99.1798 71.8511 99.945 72.0353 100.611 72.4038C101.277 72.7581 101.794 73.2683 102.163 73.9343C102.531 74.5862 102.716 75.3373 102.716 76.1877C102.716 77.1655 102.461 78.0016 101.95 78.6961C101.454 79.3763 100.76 79.8511 99.8671 80.1203C99.8387 80.1203 99.8175 80.1345 99.8033 80.1628C99.7891 80.1912 99.7891 80.2195 99.8033 80.2479L102.801 86.4339C102.829 86.4906 102.843 86.5331 102.843 86.5614C102.843 86.6748 102.765 86.7315 102.609 86.7315H100.569ZM94.7865 73.9769C94.7156 73.9769 94.6802 74.0123 94.6802 74.0831V78.3134C94.6802 78.3843 94.7156 78.4197 94.7865 78.4197H97.9752C98.6554 78.4197 99.201 78.2213 99.612 77.8245C100.037 77.4135 100.25 76.875 100.25 76.2089C100.25 75.5428 100.037 75.0043 99.612 74.5933C99.201 74.1823 98.6554 73.9769 97.9752 73.9769H94.7865Z" fill="#0095D3"/>
<path d="M115.327 73.7218C115.327 73.7926 115.299 73.8564 115.242 73.9131C115.2 73.9556 115.143 73.9769 115.072 73.9769H107.823C107.753 73.9769 107.717 74.0123 107.717 74.0831V78.0583C107.717 78.1292 107.753 78.1646 107.823 78.1646H112.691C112.762 78.1646 112.819 78.193 112.862 78.2497C112.918 78.2922 112.947 78.3489 112.947 78.4197V80.0353C112.947 80.1062 112.918 80.1699 112.862 80.2266C112.819 80.2691 112.762 80.2904 112.691 80.2904H107.823C107.753 80.2904 107.717 80.3258 107.717 80.3967V84.4994C107.717 84.5703 107.753 84.6057 107.823 84.6057H115.072C115.143 84.6057 115.2 84.6341 115.242 84.6907C115.299 84.7333 115.327 84.7899 115.327 84.8608V86.4764C115.327 86.5472 115.299 86.611 115.242 86.6677C115.2 86.7102 115.143 86.7315 115.072 86.7315H105.506C105.436 86.7315 105.372 86.7102 105.315 86.6677C105.273 86.611 105.251 86.5472 105.251 86.4764V72.1062C105.251 72.0353 105.273 71.9786 105.315 71.9361C105.372 71.8794 105.436 71.8511 105.506 71.8511H115.072C115.143 71.8511 115.2 71.8794 115.242 71.9361C115.299 71.9786 115.327 72.0353 115.327 72.1062V73.7218Z" fill="#0095D3"/>
<path d="M126.483 72.1062C126.483 72.0353 126.505 71.9786 126.547 71.9361C126.604 71.8794 126.668 71.8511 126.739 71.8511H128.694C128.765 71.8511 128.822 71.8794 128.864 71.9361C128.921 71.9786 128.949 72.0353 128.949 72.1062V86.4764C128.949 86.5472 128.921 86.611 128.864 86.6677C128.822 86.7102 128.765 86.7315 128.694 86.7315H126.802C126.661 86.7315 126.561 86.6748 126.505 86.5614L120.382 76.5278C120.354 76.4853 120.326 76.4711 120.297 76.4853C120.269 76.4853 120.255 76.5136 120.255 76.5703L120.297 86.4764C120.297 86.5472 120.269 86.611 120.212 86.6677C120.17 86.7102 120.113 86.7315 120.042 86.7315H118.087C118.016 86.7315 117.952 86.7102 117.895 86.6677C117.853 86.611 117.832 86.5472 117.832 86.4764V72.1062C117.832 72.0353 117.853 71.9786 117.895 71.9361C117.952 71.8794 118.016 71.8511 118.087 71.8511H119.979C120.12 71.8511 120.219 71.9078 120.276 72.0211L126.377 82.0548C126.405 82.0973 126.434 82.1186 126.462 82.1186C126.491 82.1044 126.505 82.069 126.505 82.0123L126.483 72.1062Z" fill="#0095D3"/>
<path d="M137.026 86.9015C135.963 86.9015 135.028 86.6961 134.22 86.2851C133.412 85.8599 132.789 85.2718 132.349 84.5207C131.91 83.7696 131.69 82.898 131.69 81.906V76.6553C131.69 75.6633 131.91 74.7917 132.349 74.0406C132.789 73.2895 133.412 72.7085 134.22 72.2975C135.028 71.8865 135.963 71.681 137.026 71.681C138.075 71.681 139.003 71.8794 139.811 72.2762C140.619 72.673 141.242 73.2328 141.682 73.9556C142.121 74.6784 142.341 75.5145 142.341 76.464C142.341 76.5349 142.312 76.5986 142.255 76.6553C142.213 76.6978 142.156 76.7191 142.085 76.7191L140.13 76.8254C139.96 76.8254 139.875 76.7474 139.875 76.5916C139.875 75.7554 139.612 75.0823 139.088 74.5721C138.578 74.0619 137.891 73.8068 137.026 73.8068C136.162 73.8068 135.467 74.0619 134.943 74.5721C134.418 75.0823 134.156 75.7554 134.156 76.5916V82.0123C134.156 82.8342 134.418 83.5003 134.943 84.0105C135.467 84.5207 136.162 84.7758 137.026 84.7758C137.891 84.7758 138.578 84.5278 139.088 84.0318C139.612 83.5216 139.875 82.8484 139.875 82.0123C139.875 81.8564 139.96 81.7784 140.13 81.7784L142.085 81.8635C142.156 81.8635 142.213 81.8847 142.255 81.9272C142.312 81.9698 142.341 82.0194 142.341 82.076C142.341 83.0397 142.121 83.89 141.682 84.627C141.242 85.3497 140.619 85.9095 139.811 86.3063C139.003 86.7031 138.075 86.9015 137.026 86.9015Z" fill="#0095D3"/>
<path d="M155.061 73.7218C155.061 73.7926 155.033 73.8564 154.976 73.9131C154.934 73.9556 154.877 73.9769 154.806 73.9769H147.557C147.486 73.9769 147.451 74.0123 147.451 74.0831V78.0583C147.451 78.1292 147.486 78.1646 147.557 78.1646H152.425C152.496 78.1646 152.553 78.193 152.595 78.2497C152.652 78.2922 152.68 78.3489 152.68 78.4197V80.0353C152.68 80.1062 152.652 80.1699 152.595 80.2266C152.553 80.2691 152.496 80.2904 152.425 80.2904H147.557C147.486 80.2904 147.451 80.3258 147.451 80.3967V84.4994C147.451 84.5703 147.486 84.6057 147.557 84.6057H154.806C154.877 84.6057 154.934 84.6341 154.976 84.6907C155.033 84.7333 155.061 84.7899 155.061 84.8608V86.4764C155.061 86.5472 155.033 86.611 154.976 86.6677C154.934 86.7102 154.877 86.7315 154.806 86.7315H145.24C145.169 86.7315 145.105 86.7102 145.049 86.6677C145.006 86.611 144.985 86.5472 144.985 86.4764V72.1062C144.985 72.0353 145.006 71.9786 145.049 71.9361C145.105 71.8794 145.169 71.8511 145.24 71.8511H154.806C154.877 71.8511 154.934 71.8794 154.976 71.9361C155.033 71.9786 155.061 72.0353 155.061 72.1062V73.7218Z" fill="#0095D3"/>
<path d="M11.9123 66.7492C5.33364 66.7498 0.0005856 71.9527 0 78.3712C0.0005856 84.7893 5.33364 89.9921 11.9123 89.9933C18.4915 89.9921 23.824 84.7904 23.8251 78.3712C23.8245 71.9527 18.4921 66.7498 11.9123 66.7492ZM18.6174 84.9121C16.8975 86.5883 14.5346 87.6212 11.9123 87.6218C9.28995 87.6212 6.92706 86.5872 5.20715 84.9121C3.48959 83.2342 2.43082 80.929 2.43024 78.3712C2.43082 75.813 3.48959 73.5077 5.20774 71.8298C6.92764 70.1536 9.29054 69.1207 11.9129 69.1201C14.5352 69.1207 16.8981 70.1542 18.618 71.8298C20.3361 73.5083 21.3949 75.8135 21.3955 78.3712C21.3943 80.929 20.3355 83.2342 18.6174 84.9121Z" fill="#0095D3"/>
<path d="M10.3145 75.7563C11.6784 75.7563 12.7842 74.6506 12.7842 73.2866C12.7842 71.9227 11.6784 70.8169 10.3145 70.8169C8.95051 70.8169 7.8448 71.9227 7.8448 73.2866C7.8448 74.6506 8.95051 75.7563 10.3145 75.7563Z" fill="#0095D3"/>
<path d="M18.0141 78.3712C18.0141 79.8168 16.9094 80.9862 15.5439 80.9862C14.1822 80.9862 13.0747 79.8156 13.0747 78.3712C13.0747 76.9256 14.1828 75.7563 15.5439 75.7563C16.9105 75.7557 18.0141 76.9262 18.0141 78.3712Z" fill="#0095D3"/>
<path d="M10.3145 85.9255C11.6784 85.9255 12.7842 84.8198 12.7842 83.4559C12.7842 82.0919 11.6784 80.9862 10.3145 80.9862C8.95051 80.9862 7.8448 82.0919 7.8448 83.4559C7.8448 84.8198 8.95051 85.9255 10.3145 85.9255Z" fill="#0095D3"/>
<path d="M20.1836 37.7177H9.61264V55.9254H2.56483V9.62597H20.1819C29.2512 9.62597 35.0557 15.6089 35.0557 23.6718C35.0557 31.7348 29.2512 37.7177 20.1836 37.7177ZM19.7905 15.9334H9.61104V31.3447H19.7905C24.6837 31.3447 28.0111 28.5483 28.0111 23.6718C28.0111 18.7938 24.6837 15.9334 19.7905 15.9334Z" fill="#0095D3"/>
<path d="M50.4976 55.9254C44.3198 55.9254 41.5538 51.698 41.5538 46.8232V9.62597H48.1176V46.433C48.1176 48.9704 49.0148 50.2687 51.6543 50.2687H54.5501V55.9254H50.4976Z" fill="#0095D3"/>
<path d="M84.6348 52.794C82.4137 55.0308 79.054 56.7376 74.4152 56.7376C69.7796 56.7376 66.4844 55.0276 64.2666 52.794C61.0424 49.5098 60.236 45.2995 60.236 39.6476C60.236 34.0603 61.0424 29.8516 64.2666 26.5658C66.4844 24.3306 69.7796 22.6222 74.4152 22.6222C79.054 22.6222 82.4137 24.3338 84.6348 26.5658C87.859 29.8516 88.6654 34.0603 88.6654 39.6476C88.6687 45.3011 87.859 49.5082 84.6348 52.794ZM79.4572 30.5127C78.1797 29.2633 76.433 28.6039 74.4152 28.6039C72.4007 28.6039 70.72 29.2601 69.4409 30.5127C67.3586 32.5507 67.0909 36.0337 67.0909 39.6476C67.0909 43.2615 67.3586 46.7477 69.4409 48.7841C70.7183 50.0302 72.4007 50.7559 74.4152 50.7559C76.433 50.7559 78.1781 50.0335 79.4572 48.7841C81.5428 46.7444 81.8105 43.2615 81.8105 39.6476C81.8105 36.0337 81.5428 32.5491 79.4572 30.5127Z" fill="#0095D3"/>
<path d="M115.316 55.9253V35.8668C115.316 30.7369 112.381 28.5295 108.665 28.5295C104.949 28.5295 101.815 30.8008 101.815 35.8668V55.9237H95.1636V23.0117H101.683V26.322C103.969 23.8544 107.162 22.6222 110.488 22.6222C113.88 22.6222 116.687 23.7251 118.642 25.6086C121.186 28.0746 121.969 31.1902 121.969 34.89V55.9237L115.316 55.9253Z" fill="#0095D3"/>
<path d="M135.143 41.621C135.143 47.3376 138.185 50.9531 143.671 50.9531C147.438 50.9531 149.425 49.9042 151.806 47.5348L156.103 51.5446C152.665 54.9613 149.426 56.7376 143.541 56.7376C135.143 56.7376 128.467 52.3334 128.467 39.6476C128.467 28.8657 134.087 22.6222 142.681 22.6222C151.673 22.6222 156.896 29.1954 156.896 38.6633V41.621H135.143ZM149.291 32.4166C148.235 29.9195 145.856 28.2079 142.681 28.2079C139.51 28.2079 137.062 29.9195 136.005 32.4166C135.345 33.9294 135.212 34.9153 135.145 36.9533H150.22C150.15 34.9153 149.955 33.9277 149.291 32.4166Z" fill="#0095D3"/>
<path d="M201.614 30.7366L206.656 22.3024H232.569L214.336 53.336L201.568 30.8159L201.614 30.7366Z" fill="#0095D3"/>
<path d="M201.139 75.8373L218.976 107.264H244.889L214.333 53.3419L201.139 75.8373Z" fill="#990033"/>
<path d="M201.113 75.7922L188.435 53.5921L169.273 86.8732H194.549L201.113 75.7922Z" fill="#990033"/>
<path d="M201.562 30.8099L184.283 0H157.732L188.43 53.5712L201.562 30.8099Z" fill="#0095D3"/>
<path d="M214.336 53.336L201.139 75.8373L188.427 53.5776L201.564 30.8077L214.336 53.336Z" fill="#000023"/>
<path d="M256.637 72.1606C256.637 72.24 256.605 72.3114 256.541 72.3749C256.494 72.4225 256.43 72.4463 256.351 72.4463H248.232C248.153 72.4463 248.113 72.486 248.113 72.5653V77.0176C248.113 77.0969 248.153 77.1366 248.232 77.1366H253.684C253.764 77.1366 253.827 77.1684 253.875 77.2318C253.938 77.2795 253.97 77.3429 253.97 77.4223V79.2318C253.97 79.3111 253.938 79.3825 253.875 79.446C253.827 79.4937 253.764 79.5175 253.684 79.5175H248.232C248.153 79.5175 248.113 79.5571 248.113 79.6365V84.2316C248.113 84.3109 248.153 84.3506 248.232 84.3506H256.351C256.43 84.3506 256.494 84.3824 256.541 84.4458C256.605 84.4935 256.637 84.557 256.637 84.6363V86.4458C256.637 86.5251 256.605 86.5966 256.541 86.6601C256.494 86.7077 256.43 86.7315 256.351 86.7315H245.637C245.558 86.7315 245.486 86.7077 245.423 86.6601C245.375 86.5966 245.351 86.5251 245.351 86.4458V70.3511C245.351 70.2718 245.375 70.2083 245.423 70.1607C245.486 70.0972 245.558 70.0654 245.637 70.0654H256.351C256.43 70.0654 256.494 70.0972 256.541 70.1607C256.605 70.2083 256.637 70.2718 256.637 70.3511V72.1606Z" fill="#990033"/>
<path d="M259.727 86.7315C259.648 86.7315 259.576 86.7077 259.513 86.6601C259.465 86.5966 259.441 86.5251 259.441 86.4458V70.3511C259.441 70.2718 259.465 70.2083 259.513 70.1607C259.576 70.0972 259.648 70.0654 259.727 70.0654H261.917C261.997 70.0654 262.06 70.0972 262.108 70.1607C262.171 70.2083 262.203 70.2718 262.203 70.3511V86.4458C262.203 86.5251 262.171 86.5966 262.108 86.6601C262.06 86.7077 261.997 86.7315 261.917 86.7315H259.727Z" fill="#990033"/>
<path d="M274.982 78.0413C274.886 78.0889 274.886 78.1366 274.982 78.1842C276.601 78.9461 277.41 80.2555 277.41 82.1126C277.41 83.6205 276.902 84.7712 275.886 85.5649C274.886 86.3426 273.577 86.7315 271.958 86.7315H265.958C265.879 86.7315 265.807 86.7077 265.744 86.6601C265.696 86.5966 265.672 86.5251 265.672 86.4458V70.3511C265.672 70.2718 265.696 70.2083 265.744 70.1607C265.807 70.0972 265.879 70.0654 265.958 70.0654H271.767C273.498 70.0654 274.831 70.4384 275.767 71.1844C276.704 71.9304 277.172 73.0574 277.172 74.5653C277.172 76.2319 276.442 77.3906 274.982 78.0413ZM268.553 72.4463C268.474 72.4463 268.434 72.486 268.434 72.5653V76.9699C268.434 77.0493 268.474 77.089 268.553 77.089H271.767C272.609 77.089 273.267 76.8906 273.744 76.4938C274.236 76.0811 274.482 75.5176 274.482 74.8034C274.482 74.0732 274.236 73.5018 273.744 73.0891C273.267 72.6606 272.609 72.4463 271.767 72.4463H268.553ZM271.958 84.3268C272.783 84.3268 273.434 84.1046 273.91 83.6602C274.402 83.2157 274.648 82.6126 274.648 81.8507C274.648 81.073 274.402 80.4698 273.91 80.0413C273.418 79.5968 272.752 79.3746 271.91 79.3746H268.553C268.474 79.3746 268.434 79.4143 268.434 79.4937V84.2078C268.434 84.2871 268.474 84.3268 268.553 84.3268H271.958Z" fill="#990033"/>
<path d="M290.026 86.7315C289.867 86.7315 289.764 86.6521 289.716 86.4934L288.93 83.9459C288.899 83.8824 288.859 83.8506 288.811 83.8506H282.526C282.478 83.8506 282.439 83.8824 282.407 83.9459L281.621 86.4934C281.573 86.6521 281.47 86.7315 281.312 86.7315H278.931C278.835 86.7315 278.764 86.7077 278.716 86.6601C278.669 86.5966 278.661 86.5093 278.693 86.3982L283.859 70.3035C283.907 70.1448 284.01 70.0654 284.169 70.0654H287.145C287.303 70.0654 287.407 70.1448 287.454 70.3035L292.645 86.3982C292.66 86.4299 292.668 86.4696 292.668 86.5172C292.668 86.6601 292.581 86.7315 292.406 86.7315H290.026ZM283.145 81.5412C283.129 81.6364 283.161 81.6841 283.24 81.6841H288.073C288.168 81.6841 288.2 81.6364 288.168 81.5412L285.716 73.5653C285.7 73.5018 285.676 73.4701 285.645 73.4701C285.613 73.4701 285.589 73.5018 285.573 73.5653L283.145 81.5412Z" fill="#990033"/>
<path d="M304.488 86.7315C304.329 86.7315 304.218 86.6601 304.154 86.5172L301.012 79.6603C300.98 79.5968 300.932 79.5651 300.869 79.5651H298.012C297.932 79.5651 297.893 79.6048 297.893 79.6841V86.4458C297.893 86.5251 297.861 86.5966 297.798 86.6601C297.75 86.7077 297.686 86.7315 297.607 86.7315H295.417C295.337 86.7315 295.266 86.7077 295.202 86.6601C295.155 86.5966 295.131 86.5251 295.131 86.4458V70.3511C295.131 70.2718 295.155 70.2083 295.202 70.1607C295.266 70.0972 295.337 70.0654 295.417 70.0654H301.964C302.932 70.0654 303.789 70.2718 304.535 70.6845C305.281 71.0813 305.861 71.6527 306.273 72.3987C306.686 73.1288 306.892 73.97 306.892 74.9224C306.892 76.0176 306.607 76.9541 306.035 77.7318C305.48 78.4937 304.702 79.0254 303.702 79.327C303.67 79.327 303.647 79.3429 303.631 79.3746C303.615 79.4064 303.615 79.4381 303.631 79.4698L306.988 86.3982C307.019 86.4617 307.035 86.5093 307.035 86.541C307.035 86.668 306.948 86.7315 306.773 86.7315H304.488ZM298.012 72.4463C297.932 72.4463 297.893 72.486 297.893 72.5653V77.3033C297.893 77.3826 297.932 77.4223 298.012 77.4223H301.583C302.345 77.4223 302.956 77.2001 303.416 76.7557C303.893 76.2954 304.131 75.6922 304.131 74.9462C304.131 74.2002 303.893 73.597 303.416 73.1367C302.956 72.6765 302.345 72.4463 301.583 72.4463H298.012Z" fill="#990033"/>
<path d="M252.35 50.7379C252.288 50.8003 252.257 50.8626 252.257 50.925C252.288 50.9873 252.35 51.0185 252.444 51.0185H265.772C265.928 51.0185 266.053 51.0809 266.147 51.2056C266.271 51.2991 266.334 51.4238 266.334 51.5797V55.134C266.334 55.2899 266.271 55.4302 266.147 55.5549C266.053 55.6484 265.928 55.6952 265.772 55.6952H245.663C245.507 55.6952 245.366 55.6484 245.242 55.5549C245.148 55.4302 245.101 55.2899 245.101 55.134V51.7668C245.101 51.4862 245.195 51.2524 245.382 51.0653C247.752 48.5399 250.495 45.4377 253.613 41.7587L255.811 39.1865C258.679 35.8504 260.114 33.325 260.114 31.6102C260.114 30.3319 259.662 29.2875 258.757 28.4768C257.853 27.6662 256.684 27.2609 255.25 27.2609C253.816 27.2609 252.646 27.6662 251.742 28.4768C250.869 29.2875 250.433 30.3631 250.433 31.7038V32.9197C250.433 33.0756 250.37 33.2159 250.246 33.3406C250.152 33.4341 250.028 33.4809 249.872 33.4809H245.522C245.366 33.4809 245.226 33.4341 245.101 33.3406C245.008 33.2159 244.961 33.0756 244.961 32.9197V30.9087C245.023 29.2251 245.507 27.7597 246.411 26.5126C247.315 25.2655 248.531 24.299 250.059 23.6131C251.618 22.9272 253.348 22.5842 255.25 22.5842C257.339 22.5842 259.163 22.9739 260.722 23.7534C262.28 24.5328 263.481 25.6085 264.323 26.9803C265.164 28.3209 265.585 29.8331 265.585 31.5167C265.585 34.0733 264.229 37.0196 261.517 40.3556C260.02 42.2263 257.557 45.0323 254.127 48.7737L252.35 50.7379Z" fill="#990033"/>
<path d="M280.821 56.2097C277.547 56.2097 274.944 55.2899 273.011 53.4504C271.109 51.5797 270.158 49.0699 270.158 45.9209V32.7326C270.158 29.6148 271.109 27.1518 273.011 25.3434C274.944 23.5039 277.547 22.5842 280.821 22.5842C284.095 22.5842 286.698 23.5039 288.631 25.3434C290.595 27.1518 291.578 29.6148 291.578 32.7326V45.9209C291.578 49.0699 290.595 51.5797 288.631 53.4504C286.698 55.2899 284.095 56.2097 280.821 56.2097ZM280.821 51.4862C282.442 51.4862 283.736 51.0185 284.703 50.0832C285.669 49.1167 286.153 47.8228 286.153 46.2015V32.5456C286.153 30.9243 285.669 29.646 284.703 28.7107C283.736 27.7442 282.442 27.2609 280.821 27.2609C279.231 27.2609 277.953 27.7442 276.986 28.7107C276.051 29.646 275.583 30.9243 275.583 32.5456V46.2015C275.583 47.8228 276.051 49.1167 276.986 50.0832C277.953 51.0185 279.231 51.4862 280.821 51.4862Z" fill="#990033"/>
<path d="M302.818 50.7379C302.756 50.8003 302.725 50.8626 302.725 50.925C302.756 50.9873 302.818 51.0185 302.912 51.0185H316.241C316.396 51.0185 316.521 51.0809 316.615 51.2056C316.739 51.2991 316.802 51.4238 316.802 51.5797V55.134C316.802 55.2899 316.739 55.4302 316.615 55.5549C316.521 55.6484 316.396 55.6952 316.241 55.6952H296.131C295.975 55.6952 295.835 55.6484 295.71 55.5549C295.616 55.4302 295.57 55.2899 295.57 55.134V51.7668C295.57 51.4862 295.663 51.2524 295.85 51.0653C298.22 48.5399 300.963 45.4377 304.081 41.7587L306.279 39.1865C309.148 35.8504 310.582 33.325 310.582 31.6102C310.582 30.3319 310.13 29.2875 309.225 28.4768C308.321 27.6662 307.152 27.2609 305.718 27.2609C304.284 27.2609 303.115 27.6662 302.21 28.4768C301.337 29.2875 300.901 30.3631 300.901 31.7038V32.9197C300.901 33.0756 300.839 33.2159 300.714 33.3406C300.62 33.4341 300.496 33.4809 300.34 33.4809H295.99C295.835 33.4809 295.694 33.4341 295.57 33.3406C295.476 33.2159 295.429 33.0756 295.429 32.9197V30.9087C295.492 29.2251 295.975 27.7597 296.879 26.5126C297.783 25.2655 298.999 24.299 300.527 23.6131C302.086 22.9272 303.816 22.5842 305.718 22.5842C307.807 22.5842 309.631 22.9739 311.19 23.7534C312.749 24.5328 313.949 25.6085 314.791 26.9803C315.633 28.3209 316.053 29.8331 316.053 31.5167C316.053 34.0733 314.697 37.0196 311.985 40.3556C310.488 42.2263 308.025 45.0323 304.596 48.7737L302.818 50.7379Z" fill="#990033"/>
<path d="M339.065 40.1218C339.688 41.6184 340 43.3331 340 45.2662C340 47.0121 339.735 48.5555 339.205 49.8961C338.488 51.8603 337.303 53.388 335.651 54.4793C333.998 55.5393 332.003 56.0694 329.664 56.0694C327.357 56.0694 325.346 55.4926 323.632 54.339C321.948 53.1542 320.748 51.5641 320.031 49.5687C319.656 48.6022 319.438 47.3395 319.376 45.7806C319.376 45.4065 319.563 45.2194 319.937 45.2194H324.286C324.66 45.2194 324.848 45.4065 324.848 45.7806C324.91 46.7783 325.066 47.5734 325.315 48.1657C325.596 49.1634 326.11 49.9585 326.858 50.5508C327.638 51.1121 328.573 51.3927 329.664 51.3927C331.722 51.3927 333.141 50.4573 333.92 48.5866C334.326 47.6825 334.528 46.5133 334.528 45.0791C334.528 43.489 334.294 42.1796 333.827 41.1507C333.016 39.4047 331.613 38.5317 329.618 38.5317C329.088 38.5317 328.371 38.8435 327.466 39.4671C327.342 39.5294 327.233 39.5606 327.139 39.5606C326.983 39.5606 326.827 39.4671 326.671 39.28L324.52 36.2869C324.427 36.131 324.38 36.0063 324.38 35.9128C324.38 35.7569 324.442 35.6166 324.567 35.4919L332.283 27.9156C332.346 27.8533 332.361 27.7909 332.33 27.7286C332.299 27.6662 332.237 27.635 332.143 27.635H320.451C320.296 27.635 320.155 27.5883 320.031 27.4947C319.937 27.37 319.89 27.2297 319.89 27.0738V23.5195C319.89 23.3636 319.937 23.2389 320.031 23.1454C320.155 23.0207 320.296 22.9583 320.451 22.9583H339.111C339.267 22.9583 339.392 23.0207 339.486 23.1454C339.61 23.2389 339.673 23.3636 339.673 23.5195V27.5883C339.673 27.8689 339.579 28.1027 339.392 28.2898L332.704 35.0242C332.58 35.1489 332.642 35.2425 332.891 35.3048C335.791 35.7101 337.849 37.3158 339.065 40.1218Z" fill="#990033"/>
<path d="M160.387 16.581C158.446 16.581 156.873 18.1576 156.873 20.1012C156.876 22.0448 158.446 23.6214 160.387 23.6214C162.333 23.6214 163.913 22.0448 163.913 20.1012C163.913 18.1576 162.333 16.581 160.387 16.581ZM160.387 23.1051C158.729 23.1018 157.389 21.7623 157.389 20.1012C157.392 18.4434 158.729 17.099 160.387 17.0957C162.048 17.099 163.394 18.4402 163.397 20.1012C163.392 21.7623 162.048 23.1018 160.387 23.1051Z" fill="#0095D3"/>
<path d="M161.234 22.197L160.357 20.4434H159.568V22.197H158.936V18.0339H160.55C161.336 18.0339 161.843 18.5421 161.843 19.2516C161.843 19.8475 161.479 20.2291 161.01 20.3558L161.971 22.2003L161.234 22.197ZM160.502 18.6022H159.568V19.906H160.502C160.925 19.906 161.211 19.6673 161.211 19.2581C161.211 18.849 160.925 18.6022 160.502 18.6022Z" fill="#0095D3"/>
</svg>
